<?xml version="1.0" encoding="UTF-8" ?>
<!DOCTYPE svg PUBLIC "-//W3C//DTD SVG 1.1//EN" "http://www.w3.org/Graphics/SVG/1.1/DTD/svg11.dtd">
<svg width="1024pt" height="232pt" viewBox="0 0 1024 232" version="1.1" xmlns="http://www.w3.org/2000/svg">
<g id="#51554f80">
<path fill="#51554f" opacity="0.50" d=" M 343.32 0.00 L 344.71 0.00 C 345.27 0.42 346.41 1.27 346.98 1.70 C 345.40 1.58 343.82 1.54 342.25 1.50 C 342.52 1.13 343.05 0.38 343.32 0.00 Z" />
</g>
<g id="#939c8aff">
<path fill="#939c8a" opacity="1.00" d=" M 342.25 1.50 C 343.82 1.54 345.40 1.58 346.98 1.70 C 350.66 4.82 354.92 7.11 358.70 10.08 C 353.77 18.56 347.53 26.20 342.23 34.46 C 331.09 50.33 320.14 66.33 309.11 82.28 C 306.71 85.69 304.52 90.02 300.11 91.09 C 297.93 91.92 295.75 90.66 293.64 90.23 C 282.52 78.39 271.59 66.39 260.55 54.47 C 259.28 53.47 259.10 51.47 260.43 50.42 C 264.18 46.84 267.80 43.06 272.08 40.08 C 276.47 44.31 280.94 48.50 284.74 53.28 C 287.65 56.97 291.38 59.91 294.31 63.59 C 295.20 64.40 296.06 66.34 297.57 65.52 C 299.53 63.78 300.70 61.37 302.21 59.25 C 315.50 39.96 329.02 20.83 342.25 1.50 Z" />
<path fill="#939c8a" opacity="1.00" d=" M 174.65 55.23 C 175.20 54.85 176.32 54.07 176.87 53.69 C 176.71 54.93 176.04 55.73 174.87 56.09 L 174.65 55.23 Z" />
<path fill="#939c8a" opacity="1.00" d=" M 102.06 93.93 C 104.02 95.56 105.60 97.55 106.97 99.69 C 105.28 97.81 103.69 95.86 102.06 93.93 Z" />
<path fill="#939c8a" opacity="1.00" d=" M 517.15 102.45 C 517.26 102.36 517.48 102.16 517.59 102.07 C 517.05 132.94 517.57 163.84 517.29 194.72 C 516.87 163.98 517.15 133.21 517.15 102.45 Z" />
<path fill="#939c8a" opacity="1.00" d=" M 575.14 173.95 C 576.02 174.36 576.67 175.01 577.07 175.92 C 575.29 176.36 574.64 175.71 575.14 173.95 Z" />
</g>
<g id="#42434297">
<path fill="#424342" opacity="0.59" d=" M 8.46 21.04 C 11.09 19.67 14.10 20.00 16.96 19.97 C 29.65 20.03 42.34 19.99 55.03 19.97 C 58.65 19.97 62.47 21.26 64.90 24.03 C 62.41 22.79 59.85 21.42 57.02 21.28 C 40.83 20.98 24.64 21.45 8.46 21.04 Z" />
</g>
<g id="#3a3b39bd">
<path fill="#3a3b39" opacity="0.74" d=" M 179.97 23.17 C 183.01 20.61 187.14 20.13 190.97 20.06 C 201.34 20.00 211.71 20.11 222.08 20.05 C 226.00 19.90 230.38 21.39 232.43 24.95 C 229.81 23.41 227.20 21.38 223.99 21.54 C 212.99 21.40 201.98 21.56 190.98 21.46 C 187.25 21.44 183.53 22.05 179.97 23.17 Z" />
</g>
<g id="#272824ff">
<path fill="#272824" opacity="1.00" d=" M 0.00 28.84 C 1.40 25.08 4.27 21.62 8.46 21.04 C 24.64 21.45 40.83 20.98 57.02 21.28 C 59.85 21.42 62.41 22.79 64.90 24.03 C 65.63 24.89 66.27 25.82 66.93 26.73 C 66.90 28.26 67.64 29.08 69.17 29.19 C 71.46 31.71 73.60 34.37 76.12 36.67 C 75.31 38.56 77.05 40.03 78.78 40.26 C 80.48 42.20 82.21 44.13 84.19 45.79 C 83.46 47.62 85.09 49.62 87.03 49.03 C 88.73 51.57 90.77 53.88 93.12 55.84 C 92.48 57.67 94.11 59.61 96.04 59.03 C 97.96 61.93 100.42 64.40 102.82 66.89 C 102.87 68.43 103.66 69.20 105.20 69.20 C 105.76 69.85 106.32 70.51 106.86 71.18 C 107.21 72.39 108.02 73.38 109.16 73.93 C 111.28 76.36 113.60 78.62 115.96 80.82 C 116.06 82.12 116.74 82.91 118.01 83.20 C 119.14 84.57 120.34 88.36 122.53 86.44 C 126.75 82.69 129.74 77.77 133.94 73.98 C 138.81 68.26 144.07 62.90 149.03 57.27 C 150.46 57.08 151.18 56.27 151.20 54.83 C 160.88 44.35 170.26 33.59 179.97 23.17 C 183.53 22.05 187.25 21.44 190.98 21.46 C 201.98 21.56 212.99 21.40 223.99 21.54 C 227.20 21.38 229.81 23.41 232.43 24.95 C 235.04 29.58 233.79 35.01 233.94 40.05 C 234.30 73.70 233.73 107.34 233.96 140.99 C 234.08 150.97 233.36 161.13 235.79 170.90 C 237.02 175.94 239.95 180.34 243.41 184.12 L 243.62 184.39 L 243.90 184.60 C 248.46 188.95 254.34 191.46 260.36 193.04 C 263.66 194.39 267.29 194.31 270.62 193.09 C 276.27 191.77 281.74 189.35 285.93 185.25 C 287.34 185.13 288.14 184.36 288.32 182.95 C 293.05 176.68 295.15 168.76 295.33 161.00 C 295.24 145.14 295.34 129.28 295.28 113.43 C 301.13 114.29 307.06 113.51 312.94 114.05 C 312.72 121.70 313.59 129.34 313.44 137.00 C 313.28 148.17 313.13 159.35 313.24 170.53 C 313.25 170.90 313.27 171.63 313.28 172.00 C 311.41 172.41 311.64 174.67 312.22 176.02 C 311.83 177.35 311.43 178.68 311.03 180.00 C 308.95 180.81 308.33 183.01 309.08 185.00 C 305.82 191.59 301.13 197.38 295.47 202.06 C 293.91 201.82 293.01 202.47 292.76 204.01 C 291.05 205.07 289.29 206.05 287.53 207.02 C 280.18 209.16 272.79 211.95 265.01 211.50 C 257.61 211.47 250.63 208.85 243.60 206.91 C 240.64 205.39 237.81 203.66 234.97 201.92 C 235.23 199.55 233.19 198.07 231.02 197.97 C 230.73 197.75 230.16 197.31 229.87 197.09 C 230.00 194.84 228.51 193.17 226.34 192.77 C 224.80 191.06 223.51 189.15 222.26 187.22 C 220.09 181.32 217.81 175.46 216.13 169.40 C 215.94 165.25 216.83 161.15 216.79 157.01 C 216.59 144.00 216.85 131.00 216.78 118.00 C 217.21 108.63 215.55 99.35 216.06 89.97 C 217.40 76.03 216.42 61.99 216.74 48.00 C 216.63 45.43 217.21 42.72 216.29 40.26 C 215.98 39.97 215.35 39.40 215.04 39.11 C 207.34 39.24 199.63 39.07 191.93 39.18 C 190.36 38.99 189.19 40.05 188.04 40.93 C 186.45 41.79 185.35 43.25 185.08 45.05 C 182.29 47.88 179.52 50.73 176.87 53.69 C 176.32 54.07 175.20 54.85 174.65 55.23 L 174.87 56.09 C 172.41 59.23 169.20 61.70 166.86 64.93 C 164.61 64.92 162.63 66.85 163.19 69.16 C 160.97 71.23 158.97 73.51 156.95 75.77 C 153.90 77.95 151.32 80.70 149.59 84.04 C 148.45 85.21 147.31 86.37 146.18 87.54 C 143.51 89.58 141.36 92.19 139.61 95.04 C 138.09 96.61 136.57 98.17 135.06 99.73 C 132.97 101.01 131.53 102.96 130.56 105.19 C 128.86 106.93 127.15 108.65 125.47 110.41 C 122.84 110.47 120.22 110.48 117.60 110.50 C 117.20 110.11 116.40 109.34 116.00 108.95 C 115.09 107.28 113.79 105.90 112.08 105.05 C 110.26 103.38 108.56 101.58 106.97 99.69 C 105.60 97.55 104.02 95.56 102.06 93.93 C 95.89 88.24 90.93 81.44 84.97 75.55 C 83.69 73.27 82.00 71.27 79.93 69.66 C 78.55 68.16 77.17 66.65 75.68 65.27 C 76.56 63.45 74.82 61.48 72.90 62.10 C 70.10 58.59 67.06 55.26 63.81 52.15 C 64.24 49.86 62.14 48.63 60.35 47.90 C 59.16 46.59 57.97 45.29 56.67 44.08 C 56.71 42.05 55.28 40.07 53.24 39.70 C 51.51 39.31 49.75 39.13 47.98 39.12 C 38.28 39.14 28.58 39.24 18.88 39.08 L 18.80 39.54 C 18.34 41.33 17.85 43.15 17.90 45.02 C 17.96 92.36 18.06 139.71 17.90 187.05 C 17.85 188.93 18.40 190.75 18.86 192.55 L 18.93 192.92 C 26.21 192.74 33.50 192.95 40.78 192.77 C 46.74 192.76 52.71 192.81 58.68 192.69 C 58.98 198.55 58.51 204.41 58.88 210.27 L 58.88 210.77 C 42.22 210.56 25.55 210.77 8.88 210.67 C 5.04 210.78 2.19 207.51 0.67 204.31 L 1.05 203.44 C 0.79 203.08 0.26 202.37 0.00 202.01 L 0.00 28.84 Z" />
<path fill="#272824" opacity="1.00" d=" M 671.93 105.00 C 672.42 104.96 673.41 104.89 673.91 104.85 C 682.94 104.62 691.97 104.87 701.01 104.67 C 700.94 110.42 700.96 116.17 700.78 121.92 C 694.30 122.07 687.68 120.82 681.33 122.50 C 679.09 123.03 677.02 124.06 674.93 124.96 C 673.92 125.28 673.28 125.97 673.01 127.01 C 672.31 128.63 671.47 130.20 670.83 131.84 C 669.04 136.72 670.13 141.95 670.08 147.00 C 670.07 162.61 669.91 178.22 669.95 193.82 L 669.17 193.70 C 663.84 192.49 658.30 193.77 652.94 193.15 C 651.17 192.63 651.88 190.36 651.72 189.02 C 651.76 171.34 651.61 153.67 651.78 135.99 C 651.85 134.29 651.45 132.64 651.11 131.00 C 650.96 128.09 651.59 125.24 652.41 122.47 C 653.58 117.39 657.05 113.30 660.89 109.97 C 661.85 109.20 662.80 108.23 664.11 108.13 C 664.59 107.90 665.55 107.44 666.03 107.21 C 667.13 106.31 668.58 105.63 670.05 105.89 C 670.52 105.66 671.46 105.22 671.93 105.00 Z" />
</g>
<g id="#393a39b9">
<path fill="#393a39" opacity="0.73" d=" M 66.93 26.73 C 68.21 27.06 68.96 27.88 69.17 29.19 C 67.64 29.08 66.90 28.26 66.93 26.73 Z" />
</g>
<g id="#393b39ae">
<path fill="#393b39" opacity="0.68" d=" M 76.12 36.67 C 77.57 37.36 78.48 38.70 78.78 40.26 C 77.05 40.03 75.31 38.56 76.12 36.67 Z" />
</g>
<g id="#43444396">
<path fill="#434443" opacity="0.59" d=" M 215.04 39.11 C 215.35 39.40 215.98 39.97 216.29 40.26 C 215.92 79.84 216.18 119.42 216.16 159.00 C 216.20 161.40 216.01 163.80 215.61 166.18 C 215.21 163.46 214.99 160.71 214.98 157.97 C 215.02 118.35 214.96 78.73 215.04 39.11 Z" />
</g>
<g id="#4b4b4bae">
<path fill="#4b4b4b" opacity="0.68" d=" M 17.90 45.02 C 17.85 43.15 18.34 41.33 18.80 39.54 C 19.20 48.02 18.90 56.51 19.00 64.99 C 18.82 107.51 19.23 150.03 18.86 192.55 C 18.40 190.75 17.85 188.93 17.90 187.05 C 18.06 139.71 17.96 92.36 17.90 45.02 Z" />
</g>
<g id="#2a2a2a8a">
<path fill="#2a2a2a" opacity="0.54" d=" M 53.24 39.70 C 55.28 40.07 56.71 42.05 56.67 44.08 C 54.87 43.27 53.12 41.90 53.24 39.70 Z" />
</g>
<g id="#2b2b2a77">
<path fill="#2b2b2a" opacity="0.47" d=" M 185.08 45.05 C 185.35 43.25 186.45 41.79 188.04 40.93 C 188.66 43.08 187.08 44.67 185.08 45.05 Z" />
</g>
<g id="#343533b3">
<path fill="#343533" opacity="0.70" d=" M 84.19 45.79 C 85.46 46.56 86.44 47.67 87.03 49.03 C 85.09 49.62 83.46 47.62 84.19 45.79 Z" />
</g>
<g id="#2a2a2978">
<path fill="#2a2a29" opacity="0.47" d=" M 60.35 47.90 C 62.14 48.63 64.24 49.86 63.81 52.15 C 61.83 51.56 60.40 50.03 60.35 47.90 Z" />
</g>
<g id="#2b2c2c88">
<path fill="#2b2c2c" opacity="0.53" d=" M 149.03 57.27 C 149.10 55.88 149.83 55.06 151.20 54.83 C 151.18 56.27 150.46 57.08 149.03 57.27 Z" />
</g>
<g id="#353634aa">
<path fill="#353634" opacity="0.67" d=" M 93.12 55.84 C 94.42 56.56 95.45 57.65 96.04 59.03 C 94.11 59.61 92.48 57.67 93.12 55.84 Z" />
</g>
<g id="#30302fb5">
<path fill="#30302f" opacity="0.71" d=" M 72.90 62.10 C 74.82 61.48 76.56 63.45 75.68 65.27 C 74.44 64.52 73.50 63.42 72.90 62.10 Z" />
</g>
<g id="#353533aa">
<path fill="#353533" opacity="0.67" d=" M 163.19 69.16 C 162.63 66.85 164.61 64.92 166.86 64.93 C 166.16 66.75 164.88 68.21 163.19 69.16 Z" />
</g>
<g id="#1c1c1c34">
<path fill="#1c1c1c" opacity="0.20" d=" M 714.27 66.31 C 719.43 65.00 724.77 65.66 730.04 65.44 C 731.96 65.32 733.89 65.54 735.67 66.35 C 735.92 90.84 735.49 115.34 735.89 139.83 C 737.21 139.49 738.51 139.15 739.84 138.81 C 738.75 140.84 736.41 140.47 734.48 140.57 C 734.91 137.72 735.28 134.86 735.27 131.97 C 735.19 112.98 735.21 93.99 735.25 75.00 C 735.11 72.25 735.86 69.18 734.28 66.72 C 727.94 66.87 721.58 66.56 715.25 67.10 C 715.40 85.76 715.40 104.42 715.40 123.08 C 715.10 129.40 715.08 135.72 715.38 142.05 C 715.29 156.95 715.47 171.85 715.29 186.75 L 714.64 185.67 C 713.66 184.30 714.23 182.49 714.15 180.95 C 714.50 175.66 714.20 170.36 714.12 165.07 C 713.94 156.72 714.54 148.38 714.15 140.04 C 713.92 135.67 713.77 131.29 714.06 126.92 C 714.94 115.29 714.01 103.63 714.27 91.98 C 714.44 83.42 713.58 74.85 714.27 66.31 Z" />
</g>
<g id="#1b1b1b31">
<path fill="#1b1b1b" opacity="0.19" d=" M 897.15 65.41 C 903.95 65.62 910.76 65.36 917.56 65.52 C 917.84 65.98 918.39 66.88 918.67 67.33 C 911.78 66.81 904.86 67.17 897.96 67.08 L 897.58 66.30 C 897.47 66.08 897.26 65.63 897.15 65.41 Z" />
</g>
<g id="#343433a8">
<path fill="#343433" opacity="0.66" d=" M 102.82 66.89 C 104.11 67.15 104.90 67.92 105.20 69.20 C 103.66 69.20 102.87 68.43 102.82 66.89 Z" />
</g>
<g id="#40413fed">
<path fill="#40413f" opacity="0.93" d=" M 399.94 70.98 C 400.12 69.48 399.50 67.48 400.96 66.44 C 400.65 72.30 401.03 78.15 401.19 84.00 C 400.75 115.67 401.17 147.34 401.00 179.00 C 400.70 183.70 400.64 188.41 401.07 193.10 C 400.79 193.50 400.24 194.31 399.96 194.71 C 399.96 153.47 399.99 112.23 399.94 70.98 Z" />
</g>
<g id="#262824ff">
<path fill="#262824" opacity="1.00" d=" M 400.96 66.44 C 407.79 66.97 414.80 65.78 421.51 67.36 C 421.56 67.38 421.67 67.42 421.72 67.45 C 424.43 68.65 425.45 71.67 427.16 73.88 C 438.04 89.37 448.66 105.05 459.39 120.65 C 462.64 125.58 466.41 130.16 469.25 135.35 C 470.41 137.53 472.36 135.02 472.27 133.45 C 473.53 129.75 476.55 126.97 478.37 123.54 C 478.40 123.49 478.47 123.40 478.50 123.35 C 487.29 110.58 495.92 97.71 504.67 84.91 C 506.13 82.90 507.13 80.43 509.12 78.87 C 511.00 78.12 512.06 76.42 512.22 74.43 C 513.21 71.70 514.97 69.17 517.37 67.49 C 517.43 67.44 517.55 67.34 517.61 67.29 C 524.39 65.91 531.35 67.02 538.21 66.44 C 538.26 109.24 538.16 152.05 538.26 194.85 C 531.27 194.67 524.28 194.75 517.29 194.72 C 517.57 163.84 517.05 132.94 517.59 102.07 C 517.48 102.16 517.26 102.36 517.15 102.45 L 516.17 103.01 C 513.23 107.68 510.05 112.18 506.64 116.51 C 506.61 116.56 506.54 116.65 506.51 116.70 C 500.05 126.08 493.20 135.18 486.64 144.49 C 486.61 144.53 486.54 144.62 486.51 144.67 C 483.66 148.66 480.54 152.46 477.86 156.57 C 477.82 156.62 477.75 156.73 477.71 156.79 L 476.91 157.98 C 472.77 159.98 468.14 160.05 463.76 158.86 L 463.23 158.76 L 463.11 157.77 C 463.08 156.57 462.47 155.92 461.29 155.83 L 460.50 155.72 C 460.43 155.26 460.27 154.33 460.20 153.86 C 460.06 152.80 459.48 152.06 458.44 151.65 C 457.47 151.01 456.86 150.00 456.24 149.06 C 454.32 145.54 451.95 142.30 449.18 139.42 C 446.23 135.54 443.34 131.63 440.48 127.70 C 440.45 127.65 440.38 127.56 440.35 127.51 C 438.62 125.06 436.72 122.72 435.30 120.07 C 434.17 117.71 432.66 115.55 430.68 113.84 C 428.00 110.68 425.53 107.31 423.33 103.80 C 423.06 102.60 421.88 102.58 420.94 102.44 C 421.08 104.33 420.25 106.11 420.23 108.00 C 420.35 131.34 420.22 154.66 420.28 178.00 C 420.00 182.90 420.85 188.02 419.78 192.78 C 413.77 194.19 407.27 192.37 401.11 193.63 L 401.07 193.10 C 400.64 188.41 400.70 183.70 401.00 179.00 C 401.17 147.34 400.75 115.67 401.19 84.00 C 401.03 78.15 400.65 72.30 400.96 66.44 Z" />
<path fill="#262824" opacity="1.00" d=" M 715.25 67.10 C 721.58 66.56 727.94 66.87 734.28 66.72 C 733.97 84.79 734.21 102.86 734.13 120.93 C 734.39 127.47 733.74 134.04 734.48 140.57 C 736.41 140.47 738.75 140.84 739.84 138.81 C 740.20 138.41 740.93 137.62 741.30 137.22 C 742.12 136.72 742.70 136.02 743.05 135.11 C 749.17 128.52 754.93 121.54 761.19 115.08 C 762.06 114.66 762.69 114.00 763.08 113.11 C 765.28 110.25 767.80 107.67 770.20 104.99 L 770.40 104.98 C 778.27 104.40 786.16 105.02 794.04 105.13 C 792.09 107.20 790.41 109.48 788.93 111.89 C 787.53 113.82 785.67 115.34 784.02 117.04 C 780.71 120.20 777.53 123.51 774.75 127.15 C 774.56 127.36 774.18 127.79 774.00 128.01 C 770.78 131.26 767.32 134.35 764.79 138.21 C 764.07 139.15 763.36 140.12 762.40 140.83 C 761.30 141.58 760.41 142.57 759.79 143.74 C 759.53 144.09 759.00 144.77 758.73 145.11 C 758.45 145.36 757.87 145.84 757.59 146.09 C 757.91 146.28 758.55 146.67 758.88 146.86 C 760.72 149.49 763.05 151.75 764.84 154.39 C 765.38 155.95 766.44 157.22 767.92 158.00 C 771.84 161.19 774.46 165.60 778.05 169.11 C 778.78 169.97 779.84 170.73 779.93 171.97 C 780.05 173.04 780.63 173.78 781.65 174.20 C 784.00 176.09 786.72 178.09 787.88 180.94 C 788.01 182.00 788.57 182.75 789.57 183.18 C 792.41 185.30 794.70 188.13 796.83 190.96 C 797.18 191.50 797.88 192.58 798.23 193.12 C 789.83 193.53 781.38 192.80 773.01 193.57 C 772.25 192.68 771.59 191.73 771.02 190.73 C 770.39 189.24 769.41 187.96 768.07 187.08 C 767.17 186.45 766.52 185.63 766.12 184.64 C 765.61 182.80 764.36 181.39 762.60 180.66 C 760.67 178.80 758.66 176.91 757.27 174.60 C 756.69 173.13 755.72 171.87 754.36 171.06 C 750.49 168.11 748.29 163.55 744.56 160.44 L 744.42 159.54 C 744.41 158.24 743.38 157.35 742.34 156.79 C 741.02 156.06 740.24 154.76 739.34 153.63 C 739.13 153.38 738.73 152.87 738.53 152.62 C 737.15 152.49 735.78 152.43 734.43 152.35 C 733.87 166.27 734.33 180.20 734.17 194.13 C 727.88 193.80 721.58 194.19 715.31 193.81 C 715.35 191.46 715.38 189.10 715.29 186.75 C 715.47 171.85 715.29 156.95 715.38 142.05 C 715.08 135.72 715.10 129.40 715.40 123.08 C 715.40 104.42 715.40 85.76 715.25 67.10 Z" />
<path fill="#262824" opacity="1.00" d=" M 813.39 155.94 C 813.56 126.17 813.23 96.40 813.55 66.64 C 820.52 66.56 827.49 66.56 834.46 66.58 C 834.75 93.71 834.52 120.85 834.57 147.98 C 834.08 155.87 836.50 164.13 842.09 169.87 C 843.96 171.59 846.20 172.84 848.27 174.31 L 848.49 174.46 L 848.76 174.53 C 849.30 174.68 850.37 174.98 850.90 175.13 C 851.35 175.41 852.25 175.96 852.70 176.23 L 853.33 176.35 C 858.32 178.12 863.68 178.39 868.93 178.13 C 871.91 177.93 875.07 177.88 877.68 176.21 C 878.07 176.20 878.86 176.20 879.26 176.19 C 879.73 175.95 880.68 175.48 881.15 175.24 C 887.59 172.19 893.32 167.09 895.46 160.09 C 895.80 157.86 896.42 155.70 897.18 153.58 C 899.02 148.58 897.84 143.20 898.00 138.02 C 898.13 114.56 897.80 91.11 898.06 67.66 C 904.47 67.82 910.88 67.79 917.30 67.67 C 917.15 95.12 917.35 122.57 917.26 150.02 C 917.12 151.40 917.57 152.73 918.23 153.93 C 918.32 155.31 918.19 156.66 917.85 157.98 C 917.07 158.77 916.75 159.69 916.90 160.75 L 917.01 162.15 C 915.97 162.64 915.58 163.49 915.83 164.71 C 916.03 167.53 914.31 169.98 913.25 172.47 C 911.91 174.65 910.84 177.31 908.65 178.73 C 907.60 179.05 907.00 179.75 906.86 180.83 C 906.60 181.72 906.04 182.40 905.20 182.87 C 903.34 184.15 901.56 185.53 899.90 187.04 C 899.70 187.19 899.32 187.50 899.12 187.66 C 896.52 188.98 893.93 190.33 891.44 191.85 C 890.30 192.52 889.02 192.95 887.70 192.79 C 886.47 192.56 885.61 192.95 885.09 193.96 L 883.60 193.84 C 882.38 193.58 881.54 193.98 881.10 195.06 C 879.37 195.16 877.66 195.47 875.96 195.26 C 873.99 194.81 871.99 195.10 870.17 195.87 C 868.01 196.57 865.66 196.42 863.47 196.04 C 860.67 195.29 857.79 194.78 854.90 195.16 C 853.50 195.39 852.18 195.25 850.94 194.77 C 849.87 194.10 848.64 193.65 847.39 193.88 C 845.69 194.19 844.07 193.59 842.67 192.70 C 840.56 191.36 838.24 190.41 835.85 189.71 C 829.16 186.44 823.30 181.16 819.59 174.67 L 819.50 174.52 L 819.41 174.36 C 817.95 172.00 816.92 169.43 815.78 166.92 C 815.71 166.29 815.59 165.03 815.52 164.40 C 815.30 164.43 814.85 164.49 814.62 164.52 C 814.69 161.59 813.22 158.88 813.39 155.94 Z" />
<path fill="#262824" opacity="1.00" d=" M 938.21 105.09 C 954.54 104.11 970.91 105.40 987.25 104.78 C 987.69 104.89 988.57 105.10 989.01 105.20 C 990.13 105.78 991.35 106.25 992.67 106.10 L 993.93 106.12 C 994.39 106.36 995.31 106.84 995.77 107.08 L 996.41 107.09 C 999.09 108.70 1001.81 110.27 1004.78 111.32 L 1005.48 111.58 L 1006.00 112.08 C 1008.21 114.33 1010.64 116.36 1013.05 118.41 C 1014.74 120.47 1016.49 122.60 1017.49 125.11 C 1018.48 128.28 1020.10 131.27 1020.44 134.61 C 1021.18 136.50 1022.03 138.34 1022.83 140.21 C 1023.48 143.80 1021.73 147.32 1022.38 150.91 C 1022.89 153.58 1023.21 156.35 1022.64 159.04 C 1021.39 162.33 1020.47 165.72 1019.78 169.17 C 1018.16 173.74 1015.19 177.69 1012.24 181.49 C 1009.67 184.88 1005.70 186.69 1002.45 189.31 C 1002.13 189.40 1001.48 189.57 1001.15 189.65 C 998.36 190.22 995.79 191.41 993.34 192.80 C 992.93 192.82 992.11 192.86 991.70 192.87 C 990.47 192.57 989.60 192.92 989.07 193.93 C 987.56 194.04 986.07 194.21 984.58 194.23 C 975.47 193.85 966.34 193.87 957.24 194.23 C 956.95 206.34 957.45 218.46 957.01 230.57 C 950.70 230.90 944.39 230.19 938.08 230.11 C 938.36 188.60 938.09 147.08 938.21 105.56 L 938.21 105.09 M 957.31 122.13 C 956.62 135.08 957.31 148.04 957.23 160.99 C 957.31 166.55 956.67 172.12 957.26 177.67 C 966.56 178.29 975.94 178.41 985.22 177.26 C 986.71 176.78 989.01 176.81 989.50 174.92 C 997.35 171.27 1002.18 162.88 1002.84 154.41 C 1004.74 151.74 1004.37 147.43 1002.86 144.64 C 1002.08 140.28 1001.06 135.54 998.12 132.09 C 997.22 129.99 996.24 127.28 993.50 127.26 C 992.58 126.28 991.46 125.52 990.24 124.99 C 987.37 121.97 982.78 122.24 978.98 121.68 C 971.76 121.49 964.49 121.21 957.31 122.13 Z" />
</g>
<g id="#4d4d4da4">
<path fill="#4d4d4d" opacity="0.64" d=" M 421.51 67.36 C 421.56 67.38 421.67 67.42 421.72 67.45 C 421.67 67.42 421.56 67.38 421.51 67.36 Z" />
</g>
<g id="#3f3f3f71">
<path fill="#3f3f3f" opacity="0.44" d=" M 517.37 67.49 C 517.43 67.44 517.55 67.34 517.61 67.29 C 517.55 67.34 517.43 67.44 517.37 67.49 Z" />
</g>
<g id="#3b3c3ab5">
<path fill="#3b3c3a" opacity="0.71" d=" M 734.28 66.72 C 735.86 69.18 735.11 72.25 735.25 75.00 C 735.21 93.99 735.19 112.98 735.27 131.97 C 735.28 134.86 734.91 137.72 734.48 140.57 C 733.74 134.04 734.39 127.47 734.13 120.93 C 734.21 102.86 733.97 84.79 734.28 66.72 Z" />
</g>
<g id="#4a4a47f6">
<path fill="#4a4a47" opacity="0.96" d=" M 897.58 66.30 L 897.96 67.08 L 898.06 67.66 C 897.80 91.11 898.13 114.56 898.00 138.02 C 897.84 143.20 899.02 148.58 897.18 153.58 C 896.58 126.73 897.13 99.84 896.90 72.98 C 896.86 70.73 896.87 68.46 897.58 66.30 Z" />
</g>
<g id="#2b2b2a66">
<path fill="#2b2b2a" opacity="0.40" d=" M 917.94 68.04 L 919.06 67.00 C 919.52 89.00 919.09 111.03 919.23 133.04 C 919.05 139.95 919.54 146.89 918.98 153.79 C 917.26 152.78 918.12 150.59 917.86 149.01 C 917.99 122.02 917.80 95.03 917.94 68.04 Z" />
</g>
<g id="#28282776">
<path fill="#282827" opacity="0.46" d=" M 79.93 69.66 C 82.00 71.27 83.69 73.27 84.97 75.55 C 82.81 74.03 81.05 72.06 79.93 69.66 Z" />
</g>
<g id="#2020204f">
<path fill="#202020" opacity="0.31" d=" M 106.86 71.18 C 108.64 70.42 109.78 72.41 109.16 73.93 C 108.02 73.38 107.21 72.39 106.86 71.18 Z" />
</g>
<g id="#2b2c2bab">
<path fill="#2b2c2b" opacity="0.67" d=" M 509.12 78.87 C 508.58 77.18 510.44 74.44 512.22 74.43 C 512.06 76.42 511.00 78.12 509.12 78.87 Z" />
</g>
<g id="#939c89ff">
<path fill="#939c89" opacity="1.00" d=" M 43.74 76.86 C 46.33 74.49 49.93 74.67 53.20 74.59 C 59.04 78.76 63.22 84.73 68.08 89.92 C 76.03 97.97 83.13 106.80 90.91 114.99 C 95.21 118.77 98.20 123.73 102.43 127.56 C 108.15 133.18 112.82 139.80 118.68 145.28 C 120.17 146.89 121.41 144.32 122.51 143.53 C 140.65 123.29 158.86 103.08 176.94 82.78 C 178.92 80.50 180.70 78.00 183.11 76.13 C 185.43 74.44 188.47 74.52 191.19 74.83 C 195.75 75.82 198.50 80.55 198.37 85.00 C 198.36 111.33 198.37 137.67 198.35 164.01 C 199.10 173.73 201.96 183.24 206.07 192.06 C 209.57 198.73 214.16 204.76 219.15 210.38 C 205.95 211.00 192.70 210.71 179.49 210.51 C 179.32 176.72 179.36 142.93 179.51 109.14 C 179.11 109.24 178.31 109.45 177.91 109.56 C 160.13 129.65 142.09 149.54 124.19 169.52 C 121.46 169.58 118.73 169.59 116.00 169.55 C 111.20 166.15 108.25 160.96 104.02 156.98 C 101.49 154.51 99.30 151.72 96.95 149.08 C 88.33 140.33 80.81 130.57 72.10 121.90 C 67.92 117.07 63.85 112.14 59.10 107.84 C 59.03 141.98 59.30 176.13 58.88 210.27 C 58.51 204.41 58.98 198.55 58.68 192.69 C 52.71 192.81 46.74 192.76 40.78 192.77 C 40.45 187.53 40.14 182.29 40.21 177.04 C 40.22 146.68 40.21 116.32 40.21 85.95 C 40.16 82.65 40.97 78.96 43.74 76.86 Z" />
<path fill="#939c89" opacity="1.00" d=" M 1017.49 125.11 C 1020.20 126.79 1019.83 130.22 1021.18 132.76 C 1022.01 135.16 1022.34 137.71 1022.83 140.21 C 1022.03 138.34 1021.18 136.50 1020.44 134.61 C 1020.10 131.27 1018.48 128.28 1017.49 125.11 Z" />
</g>
<g id="#2a2a2992">
<path fill="#2a2a29" opacity="0.57" d=" M 149.59 84.04 C 151.32 80.70 153.90 77.95 156.95 75.77 C 154.98 78.93 152.50 81.71 149.59 84.04 Z" />
</g>
<g id="#1c1c1c37">
<path fill="#1c1c1c" opacity="0.22" d=" M 115.96 80.82 C 117.48 80.90 118.16 81.69 118.01 83.20 C 116.74 82.91 116.06 82.12 115.96 80.82 Z" />
</g>
<g id="#2a2a298a">
<path fill="#2a2a29" opacity="0.54" d=" M 139.61 95.04 C 141.36 92.19 143.51 89.58 146.18 87.54 C 144.65 90.56 142.29 93.01 139.61 95.04 Z" />
</g>
<g id="#2728278b">
<path fill="#272827" opacity="0.55" d=" M 130.56 105.19 C 131.53 102.96 132.97 101.01 135.06 99.73 C 133.87 101.79 132.38 103.65 130.56 105.19 Z" />
</g>
<g id="#454745f8">
<path fill="#454745" opacity="0.97" d=" M 565.37 104.92 C 565.95 102.90 568.49 104.01 570.00 103.68 C 582.09 103.81 594.18 103.55 606.26 103.82 L 606.21 104.87 C 592.59 105.06 578.99 104.52 565.37 104.92 Z" />
</g>
<g id="#464747c8">
<path fill="#464747" opacity="0.78" d=" M 673.91 104.85 C 675.52 103.25 677.95 103.75 680.02 103.63 C 687.25 103.72 694.48 103.53 701.71 103.76 C 702.21 110.04 702.23 116.39 701.74 122.68 C 694.94 122.76 688.10 123.18 681.33 122.50 C 687.68 120.82 694.30 122.07 700.78 121.92 C 700.96 116.17 700.94 110.42 701.01 104.67 C 691.97 104.87 682.94 104.62 673.91 104.85 Z" />
</g>
<g id="#3b3c3bc9">
<path fill="#3b3c3b" opacity="0.79" d=" M 770.40 104.98 C 770.89 102.89 773.43 103.93 774.93 103.62 C 781.91 103.69 788.89 103.57 795.88 103.69 C 794.15 106.83 791.55 109.48 788.93 111.89 C 790.41 109.48 792.09 107.20 794.04 105.13 C 786.16 105.02 778.27 104.40 770.40 104.98 Z" />
</g>
<g id="#464846f6">
<path fill="#464846" opacity="0.96" d=" M 938.07 103.74 C 952.72 103.66 967.37 103.74 982.03 103.69 C 983.83 103.60 985.64 103.87 987.25 104.78 C 970.91 105.40 954.54 104.11 938.21 105.09 L 938.07 103.74 Z" />
</g>
<g id="#292a2972">
<path fill="#292a29" opacity="0.45" d=" M 112.08 105.05 C 113.79 105.90 115.09 107.28 116.00 108.95 C 113.66 109.42 111.74 107.34 112.08 105.05 Z" />
</g>
<g id="#2f302f7b">
<path fill="#2f302f" opacity="0.48" d=" M 420.95 104.74 C 421.28 105.05 421.93 105.68 422.26 106.00 C 422.19 132.35 422.35 158.71 422.28 185.06 C 422.19 188.46 422.75 191.98 421.53 195.24 L 420.96 193.86 C 420.83 164.16 420.81 134.44 420.95 104.74 Z" />
</g>
<g id="#272925ff">
<path fill="#272925" opacity="1.00" d=" M 565.37 104.92 C 578.99 104.52 592.59 105.06 606.21 104.87 C 606.91 104.94 608.31 105.09 609.01 105.17 C 609.77 105.89 610.68 106.20 611.73 106.12 C 612.34 106.14 613.55 106.18 614.16 106.20 C 614.29 106.26 614.55 106.40 614.68 106.47 C 626.30 110.69 634.89 123.63 632.34 136.01 C 632.11 154.37 632.27 172.73 632.24 191.09 C 632.58 193.59 629.63 193.27 628.03 193.31 C 612.69 193.12 597.34 193.30 582.00 193.22 C 579.66 193.18 577.39 194.30 575.06 193.86 C 574.58 193.66 573.62 193.25 573.14 193.04 C 572.75 192.99 571.97 192.89 571.58 192.83 C 569.40 191.62 567.16 190.52 564.86 189.59 C 559.61 186.61 554.93 180.93 554.94 174.71 C 555.18 173.44 554.76 172.20 554.18 171.09 C 552.78 165.60 554.26 159.77 556.44 154.65 C 556.47 154.61 556.51 154.52 556.53 154.47 C 557.28 153.18 557.99 151.72 559.30 150.88 C 560.95 150.10 562.38 148.94 563.04 147.18 C 566.54 143.33 572.07 142.09 576.96 140.79 C 589.27 139.74 601.74 141.19 614.04 140.02 C 604.11 139.12 594.14 139.75 584.19 139.50 C 594.10 139.07 604.05 140.03 613.92 139.10 C 613.90 137.32 613.89 135.53 614.04 133.75 C 614.20 132.71 613.93 131.78 613.23 130.97 C 611.12 125.14 605.13 121.44 599.03 121.55 C 588.02 121.64 577.02 121.39 566.02 121.63 C 564.29 116.24 565.87 110.47 565.37 104.92 M 583.65 156.09 C 579.22 156.49 574.87 159.33 573.54 163.70 C 571.29 165.95 572.35 169.91 574.09 172.20 C 574.36 172.63 574.88 173.51 575.14 173.95 C 574.64 175.71 575.29 176.36 577.07 175.92 C 578.90 176.99 581.01 177.45 582.94 178.33 C 591.95 178.53 600.96 178.31 609.97 178.43 C 611.32 178.37 613.38 178.74 613.77 176.96 C 614.04 170.03 613.75 163.08 613.90 156.14 L 613.94 155.25 C 605.64 154.73 597.32 155.09 589.02 155.09 C 587.20 155.22 585.15 154.82 583.65 156.09 Z" />
</g>
<g id="#484948b4">
<path fill="#484948" opacity="0.71" d=" M 609.01 105.17 C 610.51 104.11 611.41 104.42 611.73 106.12 C 610.68 106.20 609.77 105.89 609.01 105.17 Z" />
</g>
<g id="#4b4c4ad6">
<path fill="#4b4c4a" opacity="0.84" d=" M 670.16 105.01 L 671.11 104.55 L 671.93 105.00 C 671.46 105.22 670.52 105.66 670.05 105.89 L 670.16 105.01 Z" />
</g>
<g id="#444644b7">
<path fill="#444644" opacity="0.72" d=" M 989.01 105.20 C 989.86 103.97 992.95 104.31 992.67 106.10 C 991.35 106.25 990.13 105.78 989.01 105.20 Z" />
</g>
<g id="#5556558b">
<path fill="#555655" opacity="0.55" d=" M 614.16 106.20 C 614.29 106.26 614.55 106.40 614.68 106.47 C 614.55 106.40 614.29 106.26 614.16 106.20 Z" />
</g>
<g id="#35353473">
<path fill="#353534" opacity="0.45" d=" M 937.00 105.53 L 938.21 105.56 C 938.09 147.08 938.36 188.60 938.08 230.11 C 944.39 230.19 950.70 230.90 957.01 230.57 L 957.00 230.99 C 950.40 230.35 943.77 231.31 937.18 230.75 C 936.84 227.17 937.25 223.59 937.36 220.02 C 936.65 199.37 937.13 178.69 937.01 158.03 C 936.97 140.53 937.01 123.03 937.00 105.53 Z" />
</g>
<g id="#545654b1">
<path fill="#545654" opacity="0.69" d=" M 993.93 106.12 L 994.76 105.70 L 995.70 106.19 L 995.77 107.08 C 995.31 106.84 994.39 106.36 993.93 106.12 Z" />
</g>
<g id="#39393996">
<path fill="#393939" opacity="0.59" d=" M 664.24 107.23 L 665.22 106.76 L 666.03 107.21 C 665.55 107.44 664.59 107.90 664.11 108.13 L 664.24 107.23 Z" />
</g>
<g id="#2f302ea3">
<path fill="#2f302e" opacity="0.64" d=" M 996.41 107.09 C 999.51 107.31 1002.09 109.22 1004.83 110.52 L 1004.78 111.32 C 1001.81 110.27 999.09 108.70 996.41 107.09 Z" />
</g>
<g id="#383937ce">
<path fill="#383937" opacity="0.81" d=" M 295.23 112.57 C 301.41 112.63 307.59 112.62 313.77 112.62 C 314.68 117.02 314.25 121.52 314.30 125.98 C 314.31 139.00 314.29 152.02 314.34 165.03 C 314.36 166.93 313.73 168.73 313.24 170.53 C 313.13 159.35 313.28 148.17 313.44 137.00 C 313.59 129.34 312.72 121.70 312.94 114.05 C 307.06 113.51 301.13 114.29 295.28 113.43 L 295.23 112.57 Z" />
</g>
<g id="#2b2b2a8d">
<path fill="#2b2b2a" opacity="0.55" d=" M 1006.00 112.08 C 1009.02 113.18 1011.89 115.31 1013.05 118.41 C 1010.64 116.36 1008.21 114.33 1006.00 112.08 Z" />
</g>
<g id="#2121214f">
<path fill="#212121" opacity="0.31" d=" M 761.19 115.08 C 760.66 113.28 761.29 112.62 763.08 113.11 C 762.69 114.00 762.06 114.66 761.19 115.08 Z" />
</g>
<g id="#2b2c2ba4">
<path fill="#2b2c2b" opacity="0.64" d=" M 430.68 113.84 C 432.66 115.55 434.17 117.71 435.30 120.07 C 433.27 118.43 431.39 116.41 430.68 113.84 Z" />
</g>
<g id="#474745a8">
<path fill="#474745" opacity="0.66" d=" M 506.51 116.70 C 506.54 116.65 506.61 116.56 506.64 116.51 C 506.61 116.56 506.54 116.65 506.51 116.70 Z" />
</g>
<g id="#2a2a2991">
<path fill="#2a2a29" opacity="0.57" d=" M 774.75 127.15 C 777.53 123.51 780.71 120.20 784.02 117.04 C 782.14 121.28 778.39 124.42 774.75 127.15 Z" />
</g>
<g id="#20211f72">
<path fill="#20211f" opacity="0.45" d=" M 651.69 122.45 L 652.41 122.47 C 651.59 125.24 650.96 128.09 651.11 131.00 C 651.15 150.68 651.12 170.36 651.13 190.04 C 651.23 191.47 650.81 192.88 649.82 193.93 C 649.53 175.64 649.85 157.34 649.72 139.05 C 649.80 133.48 650.09 127.83 651.69 122.45 Z" />
</g>
<g id="#3e3f3eb8">
<path fill="#3e3f3e" opacity="0.72" d=" M 957.31 122.13 C 964.49 121.21 971.76 121.49 978.98 121.68 C 982.78 122.24 987.37 121.97 990.24 124.99 C 987.24 123.96 984.20 122.83 980.99 122.83 C 973.40 122.75 965.80 122.51 958.22 122.90 C 958.37 140.92 958.43 158.95 958.25 176.97 C 965.17 177.20 972.10 176.86 979.03 177.15 C 982.67 177.43 986.11 176.06 989.50 174.92 C 989.01 176.81 986.71 176.78 985.22 177.26 C 975.94 178.41 966.56 178.29 957.26 177.67 C 956.67 172.12 957.31 166.55 957.23 160.99 C 957.31 148.04 956.62 135.08 957.31 122.13 Z" />
</g>
<g id="#40414096">
<path fill="#404140" opacity="0.59" d=" M 478.37 123.54 C 478.40 123.49 478.47 123.40 478.50 123.35 C 478.47 123.40 478.40 123.49 478.37 123.54 Z" />
</g>
<g id="#2b2a2b5f">
<path fill="#2b2a2b" opacity="0.37" d=" M 673.01 127.01 C 673.28 125.97 673.92 125.28 674.93 124.96 C 675.36 126.64 674.72 127.32 673.01 127.01 Z" />
</g>
<g id="#434543b2">
<path fill="#434543" opacity="0.70" d=" M 440.35 127.51 C 440.38 127.56 440.45 127.65 440.48 127.70 C 440.45 127.65 440.38 127.56 440.35 127.51 Z" />
</g>
<g id="#2729278d">
<path fill="#272927" opacity="0.55" d=" M 993.50 127.26 C 996.24 127.28 997.22 129.99 998.12 132.09 C 996.54 130.51 995.01 128.90 993.50 127.26 Z" />
</g>
<g id="#2d2d2ca0">
<path fill="#2d2d2c" opacity="0.63" d=" M 764.79 138.21 C 767.32 134.35 770.78 131.26 774.00 128.01 C 772.01 132.18 768.43 135.46 764.79 138.21 Z" />
</g>
<g id="#444642a0">
<path fill="#444642" opacity="0.63" d=" M 613.23 130.97 C 613.93 131.78 614.20 132.71 614.04 133.75 C 612.39 133.37 612.12 132.44 613.23 130.97 Z" />
</g>
<g id="#424342a7">
<path fill="#424342" opacity="0.65" d=" M 670.08 147.00 C 670.13 141.95 669.04 136.72 670.83 131.84 C 671.21 152.94 670.87 174.05 670.93 195.15 C 664.00 195.18 657.08 195.20 650.15 195.08 C 651.73 193.60 653.98 193.77 655.98 193.80 C 660.38 193.93 664.77 193.80 669.17 193.70 L 669.95 193.82 C 669.91 178.22 670.07 162.61 670.08 147.00 Z" />
</g>
<g id="#313330c5">
<path fill="#313330" opacity="0.77" d=" M 469.25 135.35 C 469.83 134.38 471.07 133.24 472.27 133.45 C 472.36 135.02 470.41 137.53 469.25 135.35 Z" />
</g>
<g id="#2e2e2e44">
<path fill="#2e2e2e" opacity="0.27" d=" M 633.20 132.65 C 634.28 134.59 634.01 136.88 634.07 139.01 C 633.92 157.25 634.40 175.50 633.79 193.73 L 633.01 192.86 C 632.79 175.25 633.03 157.62 632.88 140.00 C 632.84 137.55 632.93 135.09 633.20 132.65 Z" />
</g>
<g id="#21212240">
<path fill="#212122" opacity="0.25" d=" M 741.30 137.22 C 740.63 135.46 741.22 134.75 743.05 135.11 C 742.70 136.02 742.12 136.72 741.30 137.22 Z" />
</g>
<g id="#28292789">
<path fill="#282927" opacity="0.54" d=" M 449.18 139.42 C 451.95 142.30 454.32 145.54 456.24 149.06 C 453.24 146.43 450.70 143.11 449.18 139.42 Z" />
</g>
<g id="#2927286a">
<path fill="#292728" opacity="0.42" d=" M 759.79 143.74 C 760.41 142.57 761.30 141.58 762.40 140.83 C 763.74 142.32 761.40 144.90 759.79 143.74 Z" />
</g>
<g id="#484848ae">
<path fill="#484848" opacity="0.68" d=" M 486.51 144.67 C 486.54 144.62 486.61 144.53 486.64 144.49 C 486.61 144.53 486.54 144.62 486.51 144.67 Z" />
</g>
<g id="#4142427a">
<path fill="#414242" opacity="0.48" d=" M 1024.00 157.50 C 1022.78 152.83 1021.98 147.57 1024.00 143.01 L 1024.00 157.50 Z" />
</g>
<g id="#3f3f3c91">
<path fill="#3f3f3c" opacity="0.57" d=" M 757.59 146.09 C 757.87 145.84 758.45 145.36 758.73 145.11 C 758.77 145.55 758.84 146.43 758.88 146.86 C 758.55 146.67 757.91 146.28 757.59 146.09 Z" />
</g>
<g id="#414340ff">
<path fill="#414340" opacity="1.00" d=" M 1002.86 144.64 C 1004.37 147.43 1004.74 151.74 1002.84 154.41 C 1002.81 151.15 1002.81 147.90 1002.86 144.64 Z" />
</g>
<g id="#292a2999">
<path fill="#292a29" opacity="0.60" d=" M 559.30 150.88 C 558.58 149.02 561.21 146.49 563.04 147.18 C 562.38 148.94 560.95 150.10 559.30 150.88 Z" />
</g>
<g id="#363636a6">
<path fill="#363636" opacity="0.65" d=" M 458.44 151.65 C 459.48 152.06 460.06 152.80 460.20 153.86 C 458.54 154.06 457.95 153.32 458.44 151.65 Z" />
</g>
<g id="#3939389f">
<path fill="#393938" opacity="0.62" d=" M 734.43 152.35 C 735.78 152.43 737.15 152.49 738.53 152.62 C 738.73 152.87 739.13 153.38 739.34 153.63 C 738.02 153.47 736.72 153.32 735.42 153.18 C 735.23 167.17 735.69 181.17 735.18 195.14 C 728.32 194.86 721.30 195.98 714.57 194.41 C 714.41 191.49 714.37 188.57 714.64 185.67 L 715.29 186.75 C 715.38 189.10 715.35 191.46 715.31 193.81 C 721.58 194.19 727.88 193.80 734.17 194.13 C 734.33 180.20 733.87 166.27 734.43 152.35 Z" />
</g>
<g id="#3c3d3d67">
<path fill="#3c3d3d" opacity="0.40" d=" M 556.44 154.65 C 556.47 154.61 556.51 154.52 556.53 154.47 C 556.51 154.52 556.47 154.61 556.44 154.65 Z" />
</g>
<g id="#2e2d2d90">
<path fill="#2e2d2d" opacity="0.56" d=" M 764.84 154.39 C 766.55 153.74 768.89 156.39 767.92 158.00 C 766.44 157.22 765.38 155.95 764.84 154.39 Z" />
</g>
<g id="#5a5a58fe">
<path fill="#5a5a58" opacity="1.00" d=" M 583.65 156.09 C 585.15 154.82 587.20 155.22 589.02 155.09 C 597.32 155.09 605.64 154.73 613.94 155.25 L 613.90 156.14 C 603.82 156.16 593.73 156.21 583.65 156.09 Z" />
</g>
<g id="#333332b1">
<path fill="#333332" opacity="0.69" d=" M 461.29 155.83 C 462.47 155.92 463.08 156.57 463.11 157.77 C 461.54 158.03 460.93 157.39 461.29 155.83 Z" />
</g>
<g id="#5c5a5bed">
<path fill="#5c5a5b" opacity="0.93" d=" M 477.71 156.79 C 477.75 156.73 477.82 156.62 477.86 156.57 C 477.82 156.62 477.75 156.73 477.71 156.79 Z" />
</g>
<g id="#2d2d2e9a">
<path fill="#2d2d2e" opacity="0.60" d=" M 742.34 156.79 C 743.38 157.35 744.41 158.24 744.42 159.54 C 742.99 160.28 741.34 157.96 742.34 156.79 Z" />
</g>
<g id="#2b2b2b99">
<path fill="#2b2b2b" opacity="0.60" d=" M 463.76 158.86 C 468.14 160.05 472.77 159.98 476.91 157.98 C 473.69 161.70 467.48 162.03 463.76 158.86 Z" />
</g>
<g id="#464646ac">
<path fill="#464646" opacity="0.67" d=" M 916.90 160.75 C 916.75 159.69 917.07 158.77 917.85 157.98 C 918.85 159.48 918.53 160.41 916.90 160.75 Z" />
</g>
<g id="#2d2e2ca3">
<path fill="#2d2e2c" opacity="0.64" d=" M 1022.64 159.04 L 1022.90 158.32 C 1022.75 162.04 1022.12 166.17 1019.78 169.17 C 1020.47 165.72 1021.39 162.33 1022.64 159.04 Z" />
</g>
<g id="#444542b7">
<path fill="#444542" opacity="0.72" d=" M 915.83 164.71 C 915.58 163.49 915.97 162.64 917.01 162.15 C 917.76 163.61 917.36 164.46 915.83 164.71 Z" />
</g>
<g id="#2a2b298f">
<path fill="#2a2b29" opacity="0.56" d=" M 574.09 172.20 C 572.35 169.91 571.29 165.95 573.54 163.70 C 573.41 166.55 573.63 169.39 574.09 172.20 Z" />
</g>
<g id="#27282680">
<path fill="#272826" opacity="0.50" d=" M 222.26 187.22 C 218.51 182.10 216.47 175.70 216.13 169.40 C 217.81 175.46 220.09 181.32 222.26 187.22 Z" />
</g>
<g id="#494a48df">
<path fill="#494a48" opacity="0.87" d=" M 554.18 171.09 C 554.76 172.20 555.18 173.44 554.94 174.71 C 553.13 175.04 552.96 171.89 554.18 171.09 Z" />
</g>
<g id="#292a286d">
<path fill="#292a28" opacity="0.43" d=" M 754.36 171.06 C 755.72 171.87 756.69 173.13 757.27 174.60 C 755.44 175.39 753.21 172.69 754.36 171.06 Z" />
</g>
<g id="#414240ad">
<path fill="#414240" opacity="0.68" d=" M 312.22 176.02 C 311.64 174.67 311.41 172.41 313.28 172.00 C 313.57 173.44 313.12 174.88 312.22 176.02 Z" />
</g>
<g id="#313330c0">
<path fill="#313330" opacity="0.75" d=" M 779.93 171.97 C 781.56 171.75 782.13 172.50 781.65 174.20 C 780.63 173.78 780.05 173.04 779.93 171.97 Z" />
</g>
<g id="#5556559a">
<path fill="#555655" opacity="0.60" d=" M 819.41 174.36 L 819.50 174.52 L 819.59 174.67 C 819.54 174.59 819.45 174.44 819.41 174.36 Z" />
</g>
<g id="#5f5e5ee2">
<path fill="#5f5e5e" opacity="0.89" d=" M 848.27 174.31 C 848.39 174.36 848.64 174.47 848.76 174.53 L 848.49 174.46 L 848.27 174.31 Z" />
</g>
<g id="#38383872">
<path fill="#383838" opacity="0.45" d=" M 850.90 175.13 L 851.76 174.76 L 852.68 175.33 L 852.70 176.23 C 852.25 175.96 851.35 175.41 850.90 175.13 Z" />
</g>
<g id="#383a3983">
<path fill="#383a39" opacity="0.51" d=" M 879.36 175.28 L 880.33 174.79 L 881.15 175.24 C 880.68 175.48 879.73 175.95 879.26 176.19 L 879.36 175.28 Z" />
</g>
<g id="#30313098">
<path fill="#303130" opacity="0.60" d=" M 853.33 176.35 C 854.83 175.79 856.16 176.02 857.32 177.02 C 864.09 176.67 871.00 177.76 877.68 176.21 C 875.07 177.88 871.91 177.93 868.93 178.13 C 863.68 178.39 858.32 178.12 853.33 176.35 Z" />
</g>
<g id="#313231a8">
<path fill="#313231" opacity="0.66" d=" M 906.86 180.83 C 907.00 179.75 907.60 179.05 908.65 178.73 C 909.12 180.37 908.52 181.07 906.86 180.83 Z" />
</g>
<g id="#31322fb7">
<path fill="#31322f" opacity="0.72" d=" M 309.08 185.00 C 308.33 183.01 308.95 180.81 311.03 180.00 C 311.05 181.88 310.43 183.67 309.08 185.00 Z" />
</g>
<g id="#2c2d2ba3">
<path fill="#2c2d2b" opacity="0.64" d=" M 762.60 180.66 C 764.36 181.39 765.61 182.80 766.12 184.64 C 764.26 184.99 761.91 182.51 762.60 180.66 Z" />
</g>
<g id="#2b2c2bae">
<path fill="#2b2c2b" opacity="0.68" d=" M 787.88 180.94 C 789.55 180.76 790.11 181.51 789.57 183.18 C 788.57 182.75 788.01 182.00 787.88 180.94 Z" />
</g>
<g id="#3131319b">
<path fill="#313131" opacity="0.61" d=" M 285.93 185.25 C 286.10 183.84 286.90 183.07 288.32 182.95 C 288.14 184.36 287.34 185.13 285.93 185.25 Z" />
</g>
<g id="#2a2a2a92">
<path fill="#2a2a2a" opacity="0.57" d=" M 899.90 187.04 C 901.56 185.53 903.34 184.15 905.20 182.87 C 904.04 184.92 902.34 186.73 899.90 187.04 Z" />
</g>
<g id="#5a5b5af0">
<path fill="#5a5b5a" opacity="0.94" d=" M 243.41 184.12 C 243.53 184.24 243.78 184.48 243.90 184.60 L 243.62 184.39 L 243.41 184.12 Z" />
</g>
<g id="#2a2b2a76">
<path fill="#2a2b2a" opacity="0.46" d=" M 768.07 187.08 C 769.41 187.96 770.39 189.24 771.02 190.73 C 769.19 191.40 766.87 188.74 768.07 187.08 Z" />
</g>
<g id="#2a2a2a7d">
<path fill="#2a2a2a" opacity="0.49" d=" M 891.44 191.85 C 893.93 190.33 896.52 188.98 899.12 187.66 C 897.59 190.28 894.32 191.50 891.44 191.85 Z" />
</g>
<g id="#2c2c2a9b">
<path fill="#2c2c2a" opacity="0.61" d=" M 564.86 189.59 C 567.16 190.52 569.40 191.62 571.58 192.83 C 569.06 192.67 566.33 191.77 564.86 189.59 Z" />
</g>
<g id="#2a2b29a5">
<path fill="#2a2b29" opacity="0.65" d=" M 835.85 189.71 C 838.24 190.41 840.56 191.36 842.67 192.70 C 840.14 192.55 837.54 191.68 835.85 189.71 Z" />
</g>
<g id="#2d2d2ca2">
<path fill="#2d2d2c" opacity="0.64" d=" M 993.34 192.80 C 995.79 191.41 998.36 190.22 1001.15 189.65 C 999.19 191.86 996.12 192.43 993.34 192.80 Z" />
</g>
<g id="#47474798">
<path fill="#474747" opacity="0.60" d=" M 796.83 190.96 C 798.69 191.68 799.63 193.42 800.46 195.11 C 793.31 195.26 786.17 195.11 779.03 195.19 C 777.21 195.10 775.07 195.48 773.73 193.97 C 782.20 193.40 790.72 194.42 799.17 193.47 L 798.23 193.12 C 797.88 192.58 797.18 191.50 796.83 190.96 Z" />
</g>
<g id="#343433b4">
<path fill="#343433" opacity="0.71" d=" M 226.34 192.77 C 228.51 193.17 230.00 194.84 229.87 197.09 C 228.14 196.22 226.35 194.92 226.34 192.77 Z" />
</g>
<g id="#585a58e3">
<path fill="#585a58" opacity="0.89" d=" M 260.36 193.04 C 263.77 192.83 267.20 192.80 270.62 193.09 C 267.29 194.31 263.66 194.39 260.36 193.04 Z" />
</g>
<g id="#454646b9">
<path fill="#454646" opacity="0.73" d=" M 573.14 193.04 C 573.62 193.25 574.58 193.66 575.06 193.86 L 574.27 194.34 L 573.29 193.92 L 573.14 193.04 Z" />
</g>
<g id="#454545ac">
<path fill="#454545" opacity="0.67" d=" M 885.09 193.96 C 885.61 192.95 886.47 192.56 887.70 192.79 C 887.41 194.34 886.54 194.72 885.09 193.96 Z" />
</g>
<g id="#4e4e4eb7">
<path fill="#4e4e4e" opacity="0.72" d=" M 989.07 193.93 C 989.60 192.92 990.47 192.57 991.70 192.87 C 991.39 194.38 990.52 194.73 989.07 193.93 Z" />
</g>
<g id="#4d4d4eab">
<path fill="#4d4d4e" opacity="0.67" d=" M 401.04 195.02 C 403.02 193.45 405.65 193.89 408.00 193.83 C 412.32 193.91 416.64 193.75 420.96 193.86 L 421.53 195.24 C 414.70 195.01 407.87 195.31 401.04 195.02 Z" />
</g>
<g id="#4f4f4fb6">
<path fill="#4f4f4f" opacity="0.71" d=" M 577.02 194.42 C 580.93 193.42 585.00 193.97 589.00 193.85 C 603.69 193.74 618.39 194.04 633.07 193.66 L 633.19 195.18 C 617.11 195.14 601.04 195.15 584.97 195.17 C 582.29 195.16 579.64 194.84 577.02 194.42 Z" />
</g>
<g id="#464647bb">
<path fill="#464647" opacity="0.73" d=" M 847.39 193.88 C 848.64 193.65 849.87 194.10 850.94 194.77 C 850.09 195.99 847.06 195.64 847.39 193.88 Z" />
</g>
<g id="#454646b0">
<path fill="#454646" opacity="0.69" d=" M 881.10 195.06 C 881.54 193.98 882.38 193.58 883.60 193.84 C 883.39 195.37 882.55 195.77 881.10 195.06 Z" />
</g>
<g id="#4a4b4ac6">
<path fill="#4a4b4a" opacity="0.78" d=" M 957.24 194.23 C 966.34 193.87 975.47 193.85 984.58 194.23 C 982.77 194.83 980.91 195.22 979.03 195.16 C 972.09 195.16 965.16 195.11 958.24 195.16 C 958.27 206.99 958.44 218.83 958.18 230.65 L 957.00 230.99 L 957.01 230.57 C 957.45 218.46 956.95 206.34 957.24 194.23 Z" />
</g>
<g id="#484948f4">
<path fill="#484948" opacity="0.96" d=" M 854.90 195.16 C 857.79 194.78 860.67 195.29 863.47 196.04 C 860.34 196.36 857.20 196.35 854.09 196.12 L 854.90 195.16 Z" />
</g>
<g id="#4d4d4cf3">
<path fill="#4d4d4c" opacity="0.95" d=" M 870.17 195.87 C 871.99 195.10 873.99 194.81 875.96 195.26 C 875.31 197.20 871.73 196.61 870.17 195.87 Z" />
</g>
<g id="#343534b1">
<path fill="#343534" opacity="0.69" d=" M 231.02 197.97 C 233.19 198.07 235.23 199.55 234.97 201.92 C 233.15 201.17 231.59 199.91 231.02 197.97 Z" />
</g>
<g id="#494a49e0">
<path fill="#494a49" opacity="0.88" d=" M 0.00 202.01 C 0.26 202.37 0.79 203.08 1.05 203.44 L 0.67 204.31 L 0.00 203.87 L 0.00 202.01 Z" />
</g>
<g id="#323232a2">
<path fill="#323232" opacity="0.64" d=" M 292.76 204.01 C 293.01 202.47 293.91 201.82 295.47 202.06 C 294.95 203.25 294.05 203.90 292.76 204.01 Z" />
</g>
<g id="#2c2c2b9e">
<path fill="#2c2c2b" opacity="0.62" d=" M 243.60 206.91 C 250.63 208.85 257.61 211.47 265.01 211.50 C 272.79 211.95 280.18 209.16 287.53 207.02 C 279.13 212.51 268.61 212.39 258.96 211.85 C 253.66 210.96 248.19 209.87 243.60 206.91 Z" />
</g>
</svg>
