<?xml version="1.0" encoding="UTF-8" ?>
<!DOCTYPE svg PUBLIC "-//W3C//DTD SVG 1.1//EN" "http://www.w3.org/Graphics/SVG/1.1/DTD/svg11.dtd">
<svg width="576pt" height="334pt" viewBox="0 0 576 334" version="1.1" xmlns="http://www.w3.org/2000/svg">
<g id="#ffffffff">
</g>
<g id="#96a08fff">
<path fill="#96a08f" opacity="1.00" d=" M 531.38 31.42 C 537.00 22.62 543.89 14.60 548.97 5.47 C 549.74 5.45 551.27 5.43 552.04 5.42 C 558.74 9.27 564.72 14.28 571.56 17.92 C 571.60 21.27 568.59 23.38 566.97 26.01 C 560.05 36.08 553.29 46.26 546.09 56.14 C 537.42 68.48 529.19 81.13 520.49 93.45 C 509.07 110.56 496.90 127.16 485.51 144.30 C 483.02 147.36 480.38 151.34 476.04 151.61 C 472.09 151.83 467.51 152.30 464.34 149.41 C 455.60 141.22 448.19 131.76 439.52 123.50 C 430.99 114.24 422.26 105.16 413.39 96.23 C 413.42 95.63 413.47 94.45 413.50 93.86 C 418.57 89.18 423.65 84.51 428.73 79.85 C 429.77 78.43 431.46 78.20 433.11 78.32 C 440.16 86.77 448.59 93.93 455.74 102.29 C 460.03 107.30 465.06 111.64 469.33 116.67 C 469.92 116.69 471.09 116.72 471.68 116.73 C 491.82 88.47 511.34 59.77 531.38 31.42 Z" />
</g>
<g id="#d5d7d4ff">
<path fill="#d5d7d4" opacity="1.00" d=" M 7.74 63.13 C 10.09 56.33 16.46 50.22 24.03 50.50 C 42.68 50.54 61.33 50.54 79.98 50.52 C 83.80 50.38 87.55 52.01 90.53 54.30 C 90.62 54.71 90.79 55.53 90.88 55.94 C 87.82 54.28 84.68 52.26 81.05 52.42 C 62.03 52.45 43.01 52.41 23.99 52.41 C 16.57 52.16 9.41 58.24 9.65 65.92 C 9.64 144.95 9.68 223.97 9.63 303.00 C 9.49 306.20 11.38 309.00 11.63 312.15 C 8.98 310.45 7.74 307.09 7.61 304.05 C 7.67 228.71 7.66 153.37 7.64 78.02 C 7.69 73.06 7.41 68.08 7.74 63.13 Z" />
</g>
<g id="#9a9b99ff">
<path fill="#9a9b99" opacity="1.00" d=" M 266.54 58.57 C 269.83 54.98 274.24 51.86 279.27 51.70 L 280.68 52.51 L 279.49 52.78 C 276.39 53.55 273.30 54.58 270.69 56.46 C 267.39 59.55 264.24 62.80 261.22 66.17 C 251.88 77.40 241.09 87.31 231.54 98.35 C 214.74 116.27 198.24 134.47 181.59 152.54 C 181.04 152.53 179.96 152.53 179.42 152.52 C 175.75 147.65 171.10 143.63 167.42 138.77 C 161.71 132.10 155.02 126.34 149.39 119.61 C 141.41 109.72 131.65 101.44 123.69 91.53 C 117.06 84.44 110.33 77.45 103.69 70.37 C 99.70 65.30 94.73 61.11 90.88 55.94 C 93.44 56.42 94.67 58.86 96.44 60.49 C 101.28 65.04 105.18 70.45 109.98 75.06 C 117.32 83.06 124.92 90.83 132.03 99.04 C 143.43 110.29 153.43 122.85 164.92 134.01 C 169.80 139.60 174.55 145.33 179.79 150.60 L 181.16 150.71 C 185.90 146.60 189.39 141.28 193.97 136.99 C 202.45 127.46 211.49 118.44 219.85 108.80 C 235.36 92.01 251.11 75.44 266.54 58.57 Z" />
</g>
<g id="#040503ff">
<path fill="#040503" opacity="1.00" d=" M 280.68 52.51 C 300.99 52.26 321.31 52.50 341.62 52.42 C 338.79 53.03 335.94 53.65 333.04 53.62 C 321.04 53.50 309.04 53.72 297.04 53.75 C 291.18 53.57 285.15 54.91 279.49 52.78 L 280.68 52.51 Z" />
<path fill="#040503" opacity="1.00" d=" M 461.34 240.98 C 461.52 221.52 461.20 202.06 461.52 182.61 L 463.04 182.58 C 463.59 204.97 463.26 227.38 463.11 249.77 C 462.23 249.14 461.35 248.51 460.47 247.89 C 460.90 245.60 461.28 243.30 461.34 240.98 Z" />
<path fill="#040503" opacity="1.00" d=" M 349.38 246.52 C 349.96 245.97 351.11 244.87 351.69 244.33 C 351.63 244.88 351.51 245.99 351.45 246.54 L 352.41 246.42 C 351.57 249.68 353.83 252.44 353.57 255.61 L 354.39 255.55 C 354.52 257.66 356.00 259.45 355.57 261.65 L 356.78 261.49 C 356.65 261.98 356.39 262.96 356.26 263.45 L 357.76 263.52 C 357.62 264.03 357.34 265.03 357.20 265.53 L 358.66 265.42 C 358.61 265.93 358.51 266.94 358.46 267.45 L 359.79 267.48 C 359.32 268.07 358.38 269.24 357.91 269.83 C 352.95 263.09 350.19 254.80 349.38 246.52 Z" />
</g>
<g id="#242521ff">
<path fill="#242521" opacity="1.00" d=" M 9.65 65.92 C 9.41 58.24 16.57 52.16 23.99 52.41 C 43.01 52.41 62.03 52.45 81.05 52.42 C 84.68 52.26 87.82 54.28 90.88 55.94 C 94.73 61.11 99.70 65.30 103.69 70.37 C 110.33 77.45 117.06 84.44 123.69 91.53 C 131.65 101.44 141.41 109.72 149.39 119.61 C 155.02 126.34 161.71 132.10 167.42 138.77 C 171.10 143.63 175.75 147.65 179.42 152.52 C 179.12 153.10 178.51 154.25 178.21 154.82 C 179.83 154.64 181.77 155.26 183.09 154.04 C 188.18 149.50 193.02 144.69 197.01 139.14 C 199.31 135.71 203.73 134.31 205.43 130.45 C 206.57 128.34 208.39 126.75 210.16 125.19 C 216.24 120.21 220.03 113.11 225.83 107.84 C 229.58 104.49 232.45 99.47 237.55 98.06 C 237.40 97.36 237.26 96.67 237.12 95.98 C 245.26 86.53 253.91 77.55 262.69 68.71 C 266.03 64.65 269.30 60.50 273.61 57.40 C 272.63 57.09 271.65 56.77 270.69 56.46 C 273.30 54.58 276.39 53.55 279.49 52.78 C 285.15 54.91 291.18 53.57 297.04 53.75 C 309.04 53.72 321.04 53.50 333.04 53.62 C 335.94 53.65 338.79 53.03 341.62 52.42 L 341.44 53.47 C 342.20 53.48 343.73 53.50 344.49 53.50 L 344.53 54.47 C 347.00 53.67 346.07 57.18 348.51 56.68 C 348.47 57.13 348.40 58.02 348.36 58.47 L 349.50 58.44 C 349.89 59.80 350.45 61.13 350.47 62.57 L 351.48 62.37 C 351.60 113.92 351.49 165.47 351.54 217.02 C 351.59 226.12 351.33 235.23 351.69 244.33 C 351.11 244.87 349.96 245.97 349.38 246.52 C 350.19 254.80 352.95 263.09 357.91 269.83 C 358.38 269.24 359.32 268.07 359.79 267.48 L 359.27 268.71 L 360.70 268.47 C 360.62 268.94 360.47 269.88 360.39 270.35 L 361.70 270.58 C 361.64 270.97 361.51 271.75 361.44 272.14 C 362.91 272.78 364.31 273.79 364.67 275.45 L 365.36 275.45 L 365.46 276.46 L 366.27 276.73 C 366.62 277.76 367.32 278.39 368.38 278.60 L 368.59 279.36 L 369.60 279.50 L 369.57 280.42 C 370.94 280.33 371.67 280.97 371.74 282.35 C 372.34 282.40 373.53 282.51 374.13 282.57 L 373.13 283.17 C 372.05 283.24 370.97 283.32 369.89 283.39 C 375.34 287.51 381.75 292.39 388.98 291.37 C 392.67 291.06 396.36 291.66 399.99 292.33 C 404.67 292.60 409.39 292.63 414.07 292.34 C 417.14 291.64 420.27 291.29 423.43 291.29 C 423.44 290.90 423.47 290.14 423.48 289.75 C 424.83 289.66 426.18 289.57 427.53 289.48 L 427.46 288.41 C 429.15 288.09 430.84 287.70 432.53 287.32 L 432.43 286.27 C 432.83 286.31 433.63 286.38 434.03 286.41 C 434.96 285.47 436.10 284.81 437.34 284.34 L 437.55 283.48 L 438.67 283.44 L 438.55 282.26 C 439.02 282.38 439.96 282.62 440.42 282.74 L 440.47 281.68 C 442.59 281.29 443.16 278.76 445.21 278.32 C 446.21 276.56 448.13 275.47 448.72 273.47 C 449.14 273.44 449.97 273.38 450.38 273.36 C 450.37 272.85 450.35 271.85 450.34 271.35 L 451.42 271.56 C 451.17 269.13 453.84 267.86 453.80 265.46 C 454.17 265.47 454.92 265.48 455.29 265.48 C 455.39 264.14 455.49 262.81 455.60 261.48 L 456.81 261.46 C 456.69 261.01 456.45 260.11 456.33 259.65 L 457.43 259.50 C 457.47 258.80 457.57 257.40 457.62 256.70 C 457.83 258.98 458.12 261.26 458.43 263.53 C 459.62 260.32 462.11 257.10 461.70 253.59 C 461.17 253.28 460.10 252.67 459.57 252.36 C 459.80 250.85 460.16 249.37 460.47 247.89 C 461.35 248.51 462.23 249.14 463.11 249.77 C 463.26 227.38 463.59 204.97 463.04 182.58 C 471.18 182.64 479.32 182.55 487.47 182.66 C 487.37 202.97 487.32 223.28 487.51 243.59 L 486.54 243.40 C 486.39 247.17 487.04 251.18 485.67 254.77 C 485.57 256.04 485.50 257.30 485.47 258.58 L 484.60 258.56 C 484.66 259.82 484.35 260.92 483.67 261.88 C 483.65 262.58 483.62 263.98 483.60 264.68 L 482.62 264.47 C 482.38 265.91 482.88 267.78 481.59 268.81 C 481.56 269.51 481.51 270.90 481.48 271.60 L 480.29 271.43 C 480.35 272.03 480.46 273.22 480.52 273.81 L 479.34 273.21 C 479.09 271.76 478.85 270.30 478.61 268.86 C 476.27 273.19 474.87 278.00 472.18 282.15 C 468.33 287.56 463.83 292.50 458.77 296.80 C 450.04 304.96 438.67 309.41 427.39 312.81 C 422.22 314.39 416.75 314.19 411.40 314.41 C 411.59 315.03 411.96 316.28 412.15 316.91 C 407.04 317.89 401.84 317.26 396.74 316.61 C 397.77 315.82 398.83 315.05 399.87 314.27 C 394.22 313.72 388.42 314.14 383.00 312.18 C 381.16 311.29 379.83 312.52 379.21 314.19 L 378.69 315.04 L 378.57 313.57 C 377.22 313.50 375.89 313.43 374.55 313.37 L 374.47 312.57 C 371.91 312.62 370.00 310.53 367.48 310.36 L 367.56 309.12 C 367.08 309.26 366.11 309.52 365.62 309.66 L 365.52 308.40 L 364.23 308.77 L 364.50 307.70 C 363.06 307.40 361.65 306.99 360.28 306.51 L 360.60 305.59 C 359.53 305.20 358.47 304.82 357.41 304.44 L 357.46 303.26 C 356.99 303.38 356.05 303.63 355.58 303.75 L 355.55 302.56 L 354.46 302.54 L 354.46 301.63 C 352.52 301.78 352.54 299.27 350.66 299.29 C 350.59 297.90 349.85 297.32 348.43 297.53 L 348.58 296.45 L 347.34 296.58 L 347.64 295.29 L 346.46 295.63 C 346.68 294.18 346.11 293.43 344.75 293.39 C 343.91 291.55 342.10 290.43 341.25 288.60 L 340.54 288.57 C 340.16 287.52 339.78 286.48 339.41 285.45 L 338.31 285.47 C 338.37 285.03 338.50 284.16 338.57 283.73 C 336.46 283.85 336.47 282.07 336.40 280.50 L 335.29 280.69 L 335.62 279.71 C 335.35 279.55 334.79 279.24 334.52 279.09 L 334.65 277.48 L 333.60 277.50 C 333.50 276.07 332.83 274.78 332.39 273.45 L 331.53 273.53 C 331.11 271.50 330.64 269.48 330.28 267.44 L 329.12 267.54 C 329.25 267.13 329.50 266.31 329.63 265.89 C 328.04 265.02 328.72 262.92 328.40 261.46 L 327.43 261.67 C 327.43 260.29 327.43 258.91 327.44 257.53 L 326.59 257.44 C 326.51 255.98 326.81 254.34 325.67 253.19 C 325.63 252.42 325.56 250.89 325.53 250.12 C 326.06 250.24 327.14 250.47 327.67 250.59 C 327.61 193.17 327.72 135.75 327.62 78.33 C 327.14 78.34 326.18 78.37 325.70 78.38 C 325.35 78.38 324.67 78.39 324.33 78.40 C 311.23 78.44 298.12 78.36 285.02 78.42 C 284.68 78.44 283.99 78.48 283.65 78.49 C 277.28 84.84 271.37 91.66 265.51 98.47 C 257.90 106.16 250.86 114.37 243.46 122.24 C 243.29 121.69 242.95 120.60 242.79 120.05 C 237.69 122.83 235.40 128.47 230.99 132.03 C 224.37 137.74 219.39 144.95 213.32 151.17 C 209.43 155.96 204.74 160.02 200.94 164.89 C 197.76 169.04 193.76 172.44 190.25 176.30 C 188.49 178.01 186.68 180.20 184.03 180.30 C 180.08 180.52 175.40 180.65 172.42 177.57 C 164.59 170.02 157.60 161.66 150.25 153.65 C 147.68 150.98 145.26 147.37 141.13 147.41 C 136.41 142.91 132.01 138.09 127.87 133.06 C 120.14 124.74 112.04 116.77 104.80 108.00 C 98.11 100.82 91.18 93.86 84.73 86.45 C 82.49 83.67 80.12 80.98 77.52 78.52 C 77.13 78.50 76.35 78.45 75.95 78.43 C 62.74 78.40 49.52 78.40 36.31 78.44 L 36.30 78.80 C 36.15 147.52 36.29 216.25 36.22 284.97 C 36.22 287.14 36.24 289.31 36.39 291.47 L 36.48 292.34 C 54.21 292.56 71.95 292.06 89.68 292.26 C 89.50 299.47 89.70 306.69 89.63 313.91 C 83.79 314.65 77.90 314.21 72.03 314.27 C 55.69 314.31 39.35 314.13 23.02 314.29 C 20.60 314.45 18.33 313.60 16.16 312.64 C 16.01 312.95 15.71 313.56 15.56 313.87 C 14.37 313.04 13.05 312.42 11.63 312.15 C 11.38 309.00 9.49 306.20 9.63 303.00 C 9.68 223.97 9.64 144.95 9.65 65.92 M 33.73 80.95 C 33.75 150.32 33.64 219.70 33.81 289.07 C 33.80 290.23 34.12 291.30 34.78 292.28 C 35.13 256.86 34.78 221.44 34.95 186.01 C 34.81 149.98 35.07 113.94 34.83 77.91 C 33.93 78.71 33.56 79.72 33.73 80.95 M 328.40 251.88 C 328.02 254.63 327.90 257.42 327.91 260.20 C 328.36 260.09 329.25 259.87 329.70 259.76 C 329.69 257.14 330.41 253.96 328.40 251.88 Z" />
</g>
<g id="#10100eff">
<path fill="#10100e" opacity="1.00" d=" M 261.22 66.17 C 264.24 62.80 267.39 59.55 270.69 56.46 C 271.65 56.77 272.63 57.09 273.61 57.40 C 269.30 60.50 266.03 64.65 262.69 68.71 C 253.91 77.55 245.26 86.53 237.12 95.98 C 237.26 96.67 237.40 97.36 237.55 98.06 C 232.45 99.47 229.58 104.49 225.83 107.84 C 220.03 113.11 216.24 120.21 210.16 125.19 C 208.39 126.75 206.57 128.34 205.43 130.45 C 203.73 134.31 199.31 135.71 197.01 139.14 C 193.02 144.69 188.18 149.50 183.09 154.04 C 181.77 155.26 179.83 154.64 178.21 154.82 C 178.51 154.25 179.12 153.10 179.42 152.52 C 179.96 152.53 181.04 152.53 181.59 152.54 C 198.24 134.47 214.74 116.27 231.54 98.35 C 241.09 87.31 251.88 77.40 261.22 66.17 Z" />
<path fill="#10100e" opacity="1.00" d=" M 472.18 282.15 C 474.87 278.00 476.27 273.19 478.61 268.86 C 478.85 270.30 479.09 271.76 479.34 273.21 C 479.43 273.80 479.60 274.98 479.68 275.57 L 478.19 275.43 C 478.31 275.94 478.56 276.95 478.68 277.46 L 477.29 277.47 C 477.37 277.96 477.54 278.95 477.63 279.44 L 476.15 279.49 C 476.27 279.91 476.51 280.76 476.63 281.18 C 475.66 282.75 473.36 283.42 473.47 285.51 L 472.28 285.56 C 472.39 286.04 472.59 286.99 472.70 287.47 L 471.35 287.28 L 471.58 288.60 L 470.55 288.37 C 470.48 291.24 466.68 291.85 466.38 294.57 L 465.21 294.22 L 465.73 295.55 L 464.77 295.46 C 464.41 295.77 463.70 296.38 463.34 296.69 L 463.55 297.37 C 461.83 297.60 460.84 299.05 460.05 300.43 C 459.67 300.41 458.90 300.38 458.52 300.36 L 458.64 301.57 L 457.34 301.24 L 457.61 302.60 L 456.40 302.25 L 456.42 303.50 C 455.92 303.47 454.93 303.39 454.43 303.36 L 454.55 304.70 C 454.05 304.65 453.05 304.55 452.55 304.50 C 452.50 305.01 452.39 306.04 452.34 306.55 C 451.96 306.52 451.18 306.45 450.80 306.41 C 449.86 307.40 448.48 307.70 447.36 308.40 C 446.38 308.86 445.37 309.24 444.33 309.53 L 444.64 310.50 C 443.85 310.52 442.27 310.55 441.48 310.57 L 441.68 311.73 L 440.39 311.34 L 440.61 312.37 C 436.96 312.12 433.97 314.95 430.35 314.53 L 430.64 315.52 C 429.85 315.56 428.26 315.65 427.46 315.69 C 422.35 316.09 417.24 316.38 412.15 316.91 C 411.96 316.28 411.59 315.03 411.40 314.41 C 416.75 314.19 422.22 314.39 427.39 312.81 C 438.67 309.41 450.04 304.96 458.77 296.80 C 463.83 292.50 468.33 287.56 472.18 282.15 Z" />
</g>
<g id="#090a08ff">
<path fill="#090a08" opacity="1.00" d=" M 33.73 80.95 C 33.56 79.72 33.93 78.71 34.83 77.91 C 35.07 113.94 34.81 149.98 34.95 186.01 C 34.78 221.44 35.13 256.86 34.78 292.28 C 34.12 291.30 33.80 290.23 33.81 289.07 C 33.64 219.70 33.75 150.32 33.73 80.95 Z" />
</g>
<g id="#9b9c9aff">
<path fill="#9b9c9a" opacity="1.00" d=" M 75.95 78.43 C 76.35 78.45 77.13 78.50 77.52 78.52 C 80.12 80.98 82.49 83.67 84.73 86.45 C 91.18 93.86 98.11 100.82 104.80 108.00 C 112.04 116.77 120.14 124.74 127.87 133.06 C 132.01 138.09 136.41 142.91 141.13 147.41 C 148.68 155.37 155.57 163.94 163.47 171.56 C 167.48 175.31 170.19 180.83 175.74 182.60 C 181.38 185.19 188.18 182.60 192.06 178.12 C 209.49 159.76 226.16 140.72 243.46 122.24 C 250.86 114.37 257.90 106.16 265.51 98.47 C 271.37 91.66 277.28 84.84 283.65 78.49 C 283.99 78.48 284.68 78.44 285.02 78.42 C 276.61 87.89 268.21 97.40 259.50 106.62 C 254.65 112.67 248.72 117.74 243.88 123.80 C 229.20 139.52 214.92 155.60 200.18 171.27 C 195.36 176.25 191.27 182.89 184.14 184.68 C 178.21 186.52 171.97 183.22 168.09 178.83 C 161.87 171.43 154.70 164.89 148.47 157.49 C 135.39 143.55 122.67 129.29 109.51 115.42 C 98.65 102.80 86.70 91.15 75.95 78.43 Z" />
</g>
<g id="#8e8e8dff">
<path fill="#8e8e8d" opacity="1.00" d=" M 324.33 78.40 C 324.67 78.39 325.35 78.38 325.70 78.38 C 325.65 134.60 325.83 190.84 325.61 247.06 C 325.37 246.90 324.87 246.58 324.63 246.42 C 324.29 243.64 324.44 240.83 324.37 238.04 C 324.33 184.83 324.38 131.61 324.33 78.40 Z" />
</g>
<g id="#060606ff">
<path fill="#060606" opacity="1.00" d=" M 325.70 78.38 C 326.18 78.37 327.14 78.34 327.62 78.33 C 327.72 135.75 327.61 193.17 327.67 250.59 C 327.14 250.47 326.06 250.24 325.53 250.12 C 325.55 249.35 325.59 247.82 325.61 247.06 C 325.83 190.84 325.65 134.60 325.70 78.38 Z" />
<path fill="#060606" opacity="1.00" d=" M 369.89 283.39 C 370.97 283.32 372.05 283.24 373.13 283.17 L 374.54 283.12 L 374.55 284.56 C 375.06 284.52 376.08 284.43 376.60 284.39 L 376.47 285.79 C 376.94 285.68 377.89 285.47 378.36 285.37 L 378.57 286.67 C 379.06 286.58 380.05 286.41 380.55 286.33 L 380.33 287.50 C 382.10 287.76 383.83 288.22 385.60 288.50 L 385.36 289.49 C 386.88 289.65 389.07 289.09 388.98 291.37 C 381.75 292.39 375.34 287.51 369.89 283.39 Z" />
<path fill="#060606" opacity="1.00" d=" M 89.68 292.26 L 91.02 292.28 C 91.23 300.30 90.90 308.33 91.24 316.35 C 73.16 316.03 55.07 316.28 36.99 316.21 C 31.31 316.11 25.59 316.58 19.94 315.90 C 18.26 315.78 16.92 314.72 15.56 313.87 C 15.71 313.56 16.01 312.95 16.16 312.64 C 18.33 313.60 20.60 314.45 23.02 314.29 C 39.35 314.13 55.69 314.31 72.03 314.27 C 77.90 314.21 83.79 314.65 89.63 313.91 C 89.70 306.69 89.50 299.47 89.68 292.26 Z" />
</g>
<g id="#d8ddd6ff">
<path fill="#d8ddd6" opacity="1.00" d=" M 36.30 78.80 C 37.42 79.53 37.88 80.57 37.68 81.92 C 37.48 151.17 37.76 220.43 37.52 289.68 C 45.65 289.85 53.79 289.79 61.93 289.70 C 64.17 290.04 63.45 287.28 63.60 285.98 C 63.47 238.63 63.58 191.28 63.50 143.93 C 63.46 141.64 63.63 139.35 64.07 137.10 C 64.56 137.75 65.05 138.41 65.54 139.07 C 65.44 189.68 65.41 240.30 65.59 290.91 C 55.93 292.15 46.12 291.24 36.39 291.47 C 36.24 289.31 36.22 287.14 36.22 284.97 C 36.29 216.25 36.15 147.52 36.30 78.80 Z" />
</g>
<g id="#161614ff">
<path fill="#161614" opacity="1.00" d=" M 230.99 132.03 C 235.40 128.47 237.69 122.83 242.79 120.05 C 242.95 120.60 243.29 121.69 243.46 122.24 C 226.16 140.72 209.49 159.76 192.06 178.12 C 188.18 182.60 181.38 185.19 175.74 182.60 C 170.19 180.83 167.48 175.31 163.47 171.56 C 155.57 163.94 148.68 155.37 141.13 147.41 C 145.26 147.37 147.68 150.98 150.25 153.65 C 157.60 161.66 164.59 170.02 172.42 177.57 C 175.40 180.65 180.08 180.52 184.03 180.30 C 186.68 180.20 188.49 178.01 190.25 176.30 C 193.76 172.44 197.76 169.04 200.94 164.89 C 204.74 160.02 209.43 155.96 213.32 151.17 C 219.39 144.95 224.37 137.74 230.99 132.03 Z" />
</g>
<g id="#96a18fff">
<path fill="#96a18f" opacity="1.00" d=" M 65.54 136.86 C 68.16 131.34 73.65 127.07 79.99 127.68 C 83.11 128.15 86.21 129.19 88.48 131.49 C 96.19 138.80 102.89 147.09 110.42 154.59 C 117.12 162.49 124.84 169.46 131.51 177.41 C 139.08 185.18 146.34 193.25 153.53 201.39 C 162.46 210.47 171.48 219.54 179.46 229.49 C 180.00 229.48 181.08 229.46 181.62 229.46 C 195.36 213.92 209.70 198.93 223.84 183.77 C 227.87 178.84 232.57 174.54 236.92 169.91 C 246.52 158.85 257.14 148.70 266.58 137.50 C 269.84 134.34 272.73 130.32 277.05 128.61 C 281.71 128.44 287.54 127.01 291.04 131.01 C 294.01 133.13 295.15 136.70 296.26 139.98 C 296.53 175.35 296.11 210.73 296.49 246.10 C 297.21 250.07 297.93 254.04 298.49 258.05 C 302.88 276.29 310.82 293.82 322.49 308.58 C 324.42 311.30 327.97 313.11 328.06 316.81 C 308.51 316.73 288.96 316.92 269.41 316.73 C 269.55 269.58 269.33 222.43 269.55 175.27 C 269.03 175.34 267.98 175.47 267.45 175.53 C 245.88 199.57 223.50 222.89 201.81 246.82 C 196.75 251.80 192.47 257.87 186.03 261.19 C 182.48 261.99 178.62 262.04 175.10 261.09 C 169.34 258.03 165.65 252.42 160.99 248.04 C 154.90 242.09 149.53 235.48 143.57 229.42 C 132.60 217.15 121.14 205.34 110.11 193.13 C 103.96 186.91 98.59 179.92 92.18 173.99 C 91.31 176.58 91.68 179.35 91.63 182.03 C 91.62 215.69 91.63 249.35 91.64 283.01 C 91.67 285.93 91.33 288.93 92.24 291.77 C 88.34 290.15 84.07 290.80 79.97 290.75 C 75.17 290.89 70.37 290.44 65.59 290.91 C 65.41 240.30 65.44 189.68 65.54 139.07 C 65.54 138.52 65.54 137.42 65.54 136.86 Z" />
</g>
<g id="#bfbfbeff">
<path fill="#bfbfbe" opacity="1.00" d=" M 459.63 184.02 C 459.55 181.81 462.33 181.45 463.99 181.57 C 471.44 181.68 478.93 181.38 486.37 181.73 C 486.64 181.96 487.19 182.43 487.47 182.66 C 479.32 182.55 471.18 182.64 463.04 182.58 L 461.52 182.61 C 461.20 202.06 461.52 221.52 461.34 240.98 C 461.28 243.30 460.90 245.60 460.47 247.89 C 460.16 249.37 459.80 250.85 459.57 252.36 C 459.48 253.25 459.31 255.02 459.22 255.91 L 458.59 255.69 L 457.64 254.98 C 459.84 244.81 459.51 234.33 459.54 223.99 C 459.56 210.67 459.49 197.34 459.63 184.02 Z" />
</g>
<g id="#0d0d0cff">
<path fill="#0d0d0c" opacity="1.00" d=" M 328.40 251.88 C 330.41 253.96 329.69 257.14 329.70 259.76 C 329.25 259.87 328.36 260.09 327.91 260.20 C 327.90 257.42 328.02 254.63 328.40 251.88 Z" />
</g>
<g id="#131412ff">
<path fill="#131412" opacity="1.00" d=" M 459.57 252.36 C 460.10 252.67 461.17 253.28 461.70 253.59 C 462.11 257.10 459.62 260.32 458.43 263.53 C 458.12 261.26 457.83 258.98 457.62 256.70 L 457.50 255.34 L 458.59 255.69 L 459.22 255.91 C 459.31 255.02 459.48 253.25 459.57 252.36 Z" />
</g>
<g id="#666764ff">
<path fill="#666764" opacity="1.00" d=" M 36.39 291.47 C 46.12 291.24 55.93 292.15 65.59 290.91 C 70.37 290.44 75.17 290.89 79.97 290.75 C 84.07 290.80 88.34 290.15 92.24 291.77 C 92.34 299.20 92.24 306.62 92.32 314.05 C 92.36 315.33 92.12 316.56 91.61 317.74 C 68.74 317.61 45.87 317.72 22.99 317.70 C 18.59 317.84 14.31 315.59 11.63 312.15 C 13.05 312.42 14.37 313.04 15.56 313.87 C 16.92 314.72 18.26 315.78 19.94 315.90 C 25.59 316.58 31.31 316.11 36.99 316.21 C 55.07 316.28 73.16 316.03 91.24 316.35 C 90.90 308.33 91.23 300.30 91.02 292.28 L 89.68 292.26 C 71.95 292.06 54.21 292.56 36.48 292.34 L 36.39 291.47 Z" />
</g>
<g id="#151715ff">
<path fill="#151715" opacity="1.00" d=" M 379.21 314.19 C 379.83 312.52 381.16 311.29 383.00 312.18 C 388.42 314.14 394.22 313.72 399.87 314.27 C 398.83 315.05 397.77 315.82 396.74 316.61 C 392.94 316.15 389.11 316.09 385.30 315.78 C 383.92 313.72 381.31 314.26 379.21 314.19 Z" />
</g>
<g id="#70716fff">
<path fill="#70716f" opacity="1.00" d=" M 379.21 314.19 C 381.31 314.26 383.92 313.72 385.30 315.78 C 389.11 316.09 392.94 316.15 396.74 316.61 C 401.84 317.26 407.04 317.89 412.15 316.91 C 417.24 316.38 422.35 316.09 427.46 315.69 L 428.20 316.37 C 424.58 317.08 420.98 318.09 417.28 318.27 C 410.78 318.32 404.28 318.30 397.78 318.33 C 391.52 317.60 384.79 317.49 379.21 314.19 Z" />
</g>
<g id="#cccdcbff">
<path fill="#cccdcb" opacity="1.00" d=" M 397.78 318.33 C 404.28 318.30 410.78 318.32 417.28 318.27 C 415.22 319.92 412.45 319.49 409.99 319.63 C 406.24 319.54 402.43 319.88 398.73 319.24 C 398.49 319.01 398.02 318.56 397.78 318.33 Z" />
</g>
</svg>
