<?xml version="1.0" encoding="UTF-8" ?>
<!DOCTYPE svg PUBLIC "-//W3C//DTD SVG 1.1//EN" "http://www.w3.org/Graphics/SVG/1.1/DTD/svg11.dtd">
<svg width="1024pt" height="232pt" viewBox="0 0 1024 232" version="1.1" xmlns="http://www.w3.org/2000/svg">
<g id="#afcafbff">
<path fill="#afcafb" opacity="1.00" d=" M 341.78 0.00 L 345.60 0.00 C 349.88 2.16 353.56 5.26 357.40 8.07 C 357.42 8.84 357.46 10.37 357.48 11.14 C 340.20 35.72 323.25 60.56 306.50 85.51 C 304.17 88.96 299.80 89.82 295.91 89.55 C 289.76 84.55 284.87 78.25 279.14 72.80 C 273.37 66.62 267.55 60.48 261.46 54.60 C 260.00 53.57 259.62 51.33 260.89 50.01 C 263.10 47.48 265.60 45.21 268.03 42.88 C 268.82 41.99 269.60 41.10 270.39 40.20 C 271.63 40.26 272.88 40.33 274.13 40.40 C 281.62 48.87 289.73 56.76 297.51 64.97 C 301.39 59.70 304.99 54.21 308.54 48.71 L 308.89 48.79 C 310.71 45.39 312.95 42.26 315.23 39.16 C 322.11 28.99 329.05 18.85 335.95 8.70 C 337.86 5.78 339.79 2.87 341.78 0.00 Z" />
</g>
<g id="#4d5d7679">
<path fill="#4d5d76" opacity="0.47" d=" M 175.06 28.55 C 177.71 23.12 184.10 20.16 189.98 20.27 C 199.98 20.24 209.99 20.37 220.00 20.30 C 224.04 20.21 228.23 21.04 231.54 23.47 C 234.42 26.52 235.48 30.89 235.34 34.99 C 235.07 54.00 235.59 73.02 234.87 92.03 C 235.13 116.79 234.13 141.58 235.62 166.31 C 236.10 175.54 242.26 183.36 249.63 188.40 C 255.10 190.75 260.85 193.29 266.95 192.90 C 272.83 193.32 277.88 189.87 283.16 187.87 C 276.73 193.81 267.22 194.15 259.04 192.75 C 250.27 191.26 242.66 185.39 238.29 177.73 C 234.05 171.33 234.16 163.34 233.95 155.97 C 233.83 117.99 233.99 80.01 234.01 42.04 C 233.98 37.66 234.33 33.26 233.78 28.91 C 232.69 24.29 228.01 21.66 223.49 21.66 C 217.37 20.77 211.18 20.63 205.01 20.88 C 198.89 21.15 192.73 20.72 186.66 21.66 C 181.79 21.85 178.32 25.38 175.06 28.55 Z" />
</g>
<g id="#8fa8cfd3">
<path fill="#8fa8cf" opacity="0.83" d=" M 186.66 21.66 C 192.73 20.72 198.89 21.15 205.01 20.88 C 211.18 20.63 217.37 20.77 223.49 21.66 C 211.22 22.02 198.92 22.22 186.66 21.66 Z" />
</g>
<g id="#fdfdfeff">
<path fill="#fdfdfe" opacity="1.00" d=" M 2.35 26.81 C 3.90 24.81 5.71 23.05 7.90 21.76 C 16.88 20.79 25.95 21.50 34.97 21.25 C 43.74 21.37 52.52 20.98 61.28 21.70 C 62.92 22.66 64.54 23.67 66.15 24.68 C 66.52 24.94 67.24 25.44 67.60 25.69 L 67.59 26.09 C 68.86 27.30 70.06 28.58 71.23 29.89 C 72.83 31.90 74.35 33.98 76.11 35.86 C 76.46 36.09 77.16 36.56 77.51 36.79 L 77.48 37.23 C 80.64 40.22 83.59 43.42 86.12 46.96 C 88.80 49.68 91.57 52.32 93.96 55.31 L 94.57 55.45 L 94.54 56.23 C 98.36 60.56 102.58 64.51 106.53 68.72 L 106.57 69.16 C 106.88 69.50 107.50 70.18 107.81 70.52 L 108.12 70.67 C 110.24 73.29 112.49 75.80 114.92 78.14 C 115.11 78.44 115.49 79.03 115.68 79.33 C 117.06 80.94 118.49 82.52 119.77 84.21 C 120.61 85.11 121.59 85.82 122.83 86.04 C 123.15 85.52 123.78 84.49 124.10 83.98 C 125.51 82.43 126.82 80.80 128.28 79.29 C 128.49 79.00 128.90 78.41 129.10 78.12 C 132.65 74.57 136.17 70.98 139.57 67.29 L 139.46 66.40 L 140.12 66.41 C 143.00 62.46 147.05 59.57 149.88 55.58 L 150.57 55.48 L 150.42 54.40 L 151.12 54.38 C 154.36 50.26 158.27 46.72 161.87 42.92 C 162.08 42.54 162.48 41.77 162.69 41.38 L 163.07 41.40 C 165.86 38.12 168.82 34.99 171.75 31.84 C 172.02 31.50 172.55 30.83 172.82 30.49 L 173.17 30.47 C 173.79 29.82 174.42 29.18 175.06 28.55 C 178.32 25.38 181.79 21.85 186.66 21.66 C 198.92 22.22 211.22 22.02 223.49 21.66 C 228.01 21.66 232.69 24.29 233.78 28.91 C 234.33 33.26 233.98 37.66 234.01 42.04 C 233.99 80.01 233.83 117.99 233.95 155.97 C 234.16 163.34 234.05 171.33 238.29 177.73 C 242.66 185.39 250.27 191.26 259.04 192.75 C 267.22 194.15 276.73 193.81 283.16 187.87 C 285.39 185.89 287.39 183.67 289.44 181.51 C 296.32 174.58 296.03 164.05 296.02 154.98 C 295.95 140.19 296.06 125.40 296.01 110.62 C 301.61 110.52 307.22 110.51 312.81 110.88 C 312.78 129.25 312.87 147.62 312.77 165.99 C 312.94 172.27 310.04 177.99 308.86 184.04 C 308.61 184.98 308.33 185.93 308.03 186.86 C 307.35 187.99 306.72 189.14 306.11 190.31 L 305.70 190.33 C 305.46 190.72 305.00 191.50 304.76 191.89 C 304.23 192.72 303.70 193.55 303.18 194.39 L 302.43 194.49 L 302.51 195.30 C 300.78 197.09 299.02 198.84 297.23 200.57 L 296.63 200.40 L 296.46 201.45 L 295.38 201.52 L 295.36 202.10 C 293.64 203.20 291.93 204.32 290.27 205.50 L 289.32 205.40 L 289.42 206.63 C 289.06 206.57 288.34 206.46 287.98 206.40 C 287.03 207.01 286.05 207.58 285.05 208.11 C 283.21 208.70 281.41 209.41 279.52 209.83 L 279.44 210.33 C 278.08 210.40 276.73 210.48 275.38 210.56 L 275.60 211.34 C 268.55 211.77 261.51 211.53 254.46 211.35 L 254.60 210.51 C 253.24 210.42 251.89 210.34 250.53 210.26 L 250.40 209.82 C 248.63 209.24 246.86 208.63 245.09 208.02 C 243.62 207.36 242.15 206.68 240.64 206.11 L 240.64 205.73 C 237.85 204.40 235.35 202.59 233.17 200.42 L 232.73 200.57 C 232.46 200.25 231.93 199.60 231.66 199.28 C 230.14 198.06 228.78 196.68 227.44 195.28 L 227.59 194.42 L 226.87 194.40 C 224.82 191.60 222.81 188.76 221.31 185.63 L 220.44 185.35 C 220.49 184.98 220.60 184.25 220.65 183.88 C 219.64 183.03 219.16 181.90 219.21 180.51 L 218.53 180.58 C 218.43 179.90 218.23 178.52 218.12 177.83 C 217.26 175.72 216.77 173.48 216.43 171.23 L 215.74 171.51 C 215.26 127.52 215.62 83.52 215.43 39.53 C 208.27 39.66 201.10 39.78 193.94 39.50 C 191.69 39.25 189.12 40.18 188.09 42.31 L 187.66 42.43 C 186.37 43.86 185.10 45.33 183.77 46.73 C 183.50 46.97 182.97 47.47 182.70 47.72 C 181.10 49.56 179.45 51.36 178.07 53.38 L 177.69 53.39 C 177.46 53.74 176.98 54.45 176.75 54.81 C 175.84 55.88 174.87 56.90 173.92 57.94 C 171.75 60.19 169.57 62.43 167.43 64.72 L 167.46 65.57 L 166.73 65.41 C 166.42 65.77 165.81 66.48 165.50 66.84 L 165.52 67.22 C 162.44 70.70 158.92 73.77 156.04 77.43 L 155.64 77.40 C 155.33 77.73 154.72 78.39 154.42 78.72 L 154.70 79.49 L 153.57 79.49 L 153.68 80.60 L 152.58 80.53 L 152.58 81.34 C 150.29 83.60 148.15 85.99 146.09 88.44 L 145.71 88.41 C 145.47 88.76 144.99 89.47 144.75 89.83 C 141.60 93.01 138.78 96.49 135.68 99.72 C 135.44 99.97 134.98 100.46 134.74 100.71 C 133.42 102.04 132.14 103.42 130.80 104.74 C 130.47 105.01 129.80 105.54 129.47 105.81 L 129.54 106.26 C 128.39 107.24 127.25 108.22 126.12 109.23 C 123.31 109.77 120.47 109.63 117.65 109.26 C 116.54 108.38 115.38 107.57 114.20 106.79 C 113.98 106.51 113.54 105.94 113.32 105.66 C 112.05 103.88 110.46 102.36 108.68 101.08 L 108.66 100.41 L 107.92 100.29 C 106.65 98.51 105.27 96.81 103.77 95.21 C 103.52 94.97 103.03 94.50 102.78 94.26 C 99.87 91.05 96.93 87.84 94.10 84.55 L 93.64 84.58 L 93.36 83.63 L 92.40 83.32 L 92.50 82.87 C 89.66 79.93 86.91 76.90 84.21 73.83 C 84.00 73.47 83.57 72.75 83.36 72.39 L 82.98 72.39 C 80.79 69.79 78.46 67.32 76.03 64.95 C 75.17 64.05 74.32 63.15 73.46 62.26 L 73.46 61.86 C 73.17 61.49 72.59 60.75 72.30 60.39 L 71.54 60.55 L 71.60 59.42 L 70.92 59.38 C 68.37 55.87 64.97 53.12 62.36 49.66 C 60.17 47.16 57.96 44.67 55.58 42.34 C 55.40 42.01 55.04 41.34 54.86 41.00 C 51.20 39.27 46.81 40.68 42.87 40.17 C 35.75 39.20 28.53 39.86 21.37 39.61 C 20.11 42.22 20.59 45.16 20.46 47.96 C 20.36 95.87 20.56 143.78 20.39 191.69 C 20.39 191.98 20.39 192.55 20.39 192.84 C 28.00 192.50 35.66 193.18 43.24 192.18 C 48.95 191.37 54.68 192.37 60.40 192.37 C 60.39 198.39 60.43 204.41 60.39 210.43 C 42.92 210.56 25.43 210.86 7.97 210.24 C 6.05 208.95 4.23 207.49 3.03 205.48 L 2.18 205.36 C 2.33 204.92 2.61 204.05 2.75 203.61 L 1.48 203.50 C 1.10 196.36 1.36 189.21 1.29 182.06 C 1.45 130.82 1.20 79.58 1.37 28.34 L 2.54 28.36 C 2.49 27.97 2.40 27.20 2.35 26.81 Z" />
<path fill="#fdfdfe" opacity="1.00" d=" M 717.35 68.58 C 724.00 68.53 730.65 68.51 737.31 68.55 C 737.65 89.69 737.24 110.84 737.35 131.98 C 737.62 135.28 735.97 139.33 738.87 141.86 C 740.36 140.60 741.76 139.22 742.97 137.68 L 743.34 137.48 C 743.53 137.14 743.91 136.46 744.11 136.12 C 747.24 132.61 750.78 129.46 753.62 125.70 C 755.83 122.93 758.38 120.46 760.78 117.86 C 761.00 117.49 761.43 116.75 761.64 116.38 L 762.05 116.36 C 763.35 114.58 764.77 112.89 766.30 111.29 C 766.55 111.04 767.06 110.54 767.32 110.29 C 768.62 108.81 769.96 107.36 771.40 105.99 C 771.41 105.61 771.41 104.85 771.42 104.46 C 779.52 104.52 787.66 104.09 795.74 104.58 C 787.67 104.38 779.65 105.43 771.58 105.40 C 779.21 105.98 786.86 105.20 794.50 105.64 C 794.33 106.30 793.99 107.63 793.81 108.30 C 793.73 108.61 793.56 109.25 793.48 109.56 L 792.36 109.33 L 792.62 110.19 C 791.12 111.84 789.62 113.47 788.06 115.05 C 786.48 116.78 784.89 118.50 783.24 120.15 C 783.01 120.51 782.56 121.24 782.33 121.61 L 781.95 121.58 C 780.56 123.28 779.18 124.98 777.71 126.61 C 777.45 126.91 776.93 127.51 776.66 127.81 C 775.38 129.17 774.05 130.48 772.83 131.90 C 770.84 133.89 768.96 135.99 767.05 138.06 C 766.86 138.37 766.49 139.00 766.31 139.31 C 764.30 142.05 760.77 143.86 760.05 147.35 L 761.47 147.39 L 761.55 148.14 C 762.88 149.60 764.12 151.16 765.35 152.71 C 765.54 152.98 765.92 153.52 766.11 153.79 C 771.05 158.27 774.61 163.95 779.46 168.49 C 780.99 170.32 782.24 172.37 783.96 174.05 C 784.44 174.64 784.92 175.25 785.38 175.88 C 789.65 182.33 795.13 187.87 800.02 193.85 C 791.63 193.96 783.24 194.02 774.85 193.88 C 773.97 192.89 773.14 191.86 772.33 190.83 C 772.07 190.54 771.55 189.96 771.29 189.67 C 770.04 188.26 768.90 186.76 767.76 185.27 C 767.41 185.01 766.73 184.50 766.39 184.24 L 766.54 183.83 C 764.53 181.92 762.72 179.83 761.07 177.62 L 760.37 177.60 L 760.52 176.79 C 758.65 174.79 756.84 172.73 755.04 170.68 L 754.72 170.58 C 754.42 170.22 753.81 169.50 753.51 169.14 L 753.53 168.76 C 750.46 165.66 747.97 162.08 744.94 158.96 C 743.44 157.34 742.09 155.60 741.06 153.66 C 740.17 153.63 738.40 153.58 737.51 153.55 C 737.39 167.15 737.27 180.80 737.57 194.41 C 730.82 195.05 724.01 194.85 717.26 194.39 C 717.34 152.46 717.14 110.52 717.35 68.58 Z" />
<path fill="#fdfdfe" opacity="1.00" d=" M 402.60 68.57 C 409.59 68.52 416.57 68.50 423.56 68.58 L 423.50 69.29 C 425.60 69.57 427.24 71.03 428.43 72.70 C 429.13 74.30 430.22 75.66 431.31 77.01 C 431.31 77.35 431.31 78.04 431.32 78.39 L 432.54 78.41 L 432.44 79.18 C 432.84 79.64 433.64 80.56 434.04 81.02 C 435.12 82.63 436.15 84.27 437.23 85.88 C 439.30 88.51 440.98 91.40 442.75 94.24 C 443.00 94.50 443.51 95.03 443.76 95.30 C 444.95 97.12 446.11 98.95 447.23 100.82 C 448.08 101.93 449.00 103.00 449.89 104.10 C 450.77 105.62 451.74 107.09 452.68 108.58 L 453.46 108.63 C 453.45 109.08 453.42 109.97 453.41 110.41 L 454.59 110.42 L 454.73 111.10 C 455.98 112.93 457.13 114.83 458.32 116.70 C 461.67 122.01 465.77 126.79 468.82 132.29 L 469.11 132.61 C 469.90 133.58 470.72 134.53 471.55 135.49 C 472.51 134.28 473.47 133.07 474.46 131.88 C 474.44 131.56 474.40 130.92 474.38 130.60 L 475.21 130.56 C 476.35 128.34 477.67 126.22 479.16 124.22 C 480.20 122.83 481.16 121.37 482.08 119.89 C 483.06 118.51 484.02 117.12 484.90 115.67 L 485.68 115.55 L 485.49 114.78 C 485.85 114.30 486.58 113.34 486.95 112.86 C 487.99 111.17 489.18 109.57 490.49 108.07 L 490.34 106.78 C 490.68 106.74 491.36 106.66 491.70 106.62 L 491.48 105.71 C 492.77 104.10 494.08 102.50 495.50 100.99 C 495.47 100.65 495.41 99.97 495.38 99.63 L 496.60 99.64 L 496.59 98.90 C 498.88 95.70 500.86 92.29 503.26 89.17 C 504.18 87.66 505.27 86.27 506.47 84.98 C 506.47 84.65 506.48 84.00 506.48 83.67 L 507.30 83.63 C 508.88 80.86 510.78 78.30 512.81 75.84 C 514.40 72.81 516.39 69.96 519.64 68.54 C 526.06 68.58 532.48 68.51 538.90 68.57 L 538.83 69.85 C 538.18 85.56 538.85 101.28 538.67 116.99 C 538.45 142.64 538.75 168.29 538.54 193.93 C 532.04 194.03 525.53 193.88 519.03 193.98 C 519.00 163.68 519.13 133.38 518.97 103.08 C 518.51 103.26 517.58 103.62 517.12 103.81 L 517.12 103.81 C 515.68 106.10 514.28 108.42 512.68 110.62 C 512.43 110.92 511.92 111.52 511.67 111.83 C 510.06 113.96 508.62 116.21 507.23 118.49 L 506.89 118.67 C 505.33 120.79 503.82 122.95 502.28 125.10 C 502.04 125.43 501.57 126.10 501.33 126.43 C 499.76 128.52 498.25 130.65 496.71 132.76 C 493.26 137.74 489.70 142.62 486.28 147.62 L 485.38 147.62 C 485.43 148.06 485.54 148.94 485.60 149.38 L 484.73 149.43 C 483.80 150.92 482.83 152.39 481.92 153.90 C 481.04 155.01 480.16 156.12 479.35 157.28 C 476.21 162.08 469.18 161.59 464.56 159.47 L 464.61 158.52 L 463.47 158.68 L 463.31 157.96 C 462.05 156.41 460.90 154.78 459.78 153.13 C 457.80 150.51 455.79 147.89 454.29 144.96 C 454.05 144.85 453.57 144.65 453.34 144.54 L 453.55 143.44 L 452.85 143.44 C 451.55 141.56 450.26 139.67 449.11 137.70 L 448.70 137.63 C 448.47 137.25 448.02 136.48 447.79 136.09 C 445.80 133.51 443.88 130.87 441.97 128.23 C 441.26 127.19 440.58 126.15 439.90 125.10 C 438.83 123.77 437.75 122.45 436.71 121.09 C 435.55 119.23 434.36 117.39 433.21 115.54 L 432.81 115.42 C 431.08 113.05 429.47 110.59 427.87 108.13 C 426.55 106.65 425.37 105.06 424.24 103.44 L 422.69 103.60 C 422.69 105.61 422.70 107.61 422.67 109.62 L 423.30 109.46 C 423.27 112.56 423.26 115.66 423.34 118.75 L 422.70 118.33 C 422.57 143.99 423.00 169.66 422.52 195.31 C 416.75 195.37 410.98 195.37 405.22 195.36 L 405.81 194.80 C 404.25 194.82 402.85 194.40 401.60 193.55 C 401.64 192.61 401.74 190.71 401.78 189.77 C 402.04 187.86 402.24 185.94 402.23 184.02 C 402.14 151.01 402.42 118.00 402.23 85.00 C 402.25 79.52 402.17 74.04 402.60 68.57 Z" />
<path fill="#fdfdfe" opacity="1.00" d=" M 814.49 68.55 C 821.48 68.52 828.47 68.56 835.46 68.56 C 835.65 97.91 835.08 127.27 835.71 156.61 L 836.34 156.18 C 836.53 158.25 837.15 160.24 837.88 162.18 C 838.72 164.00 839.66 165.77 840.74 167.48 L 841.41 167.39 C 841.71 167.73 842.30 168.41 842.59 168.74 L 842.29 169.53 L 843.43 169.51 L 843.46 170.30 C 845.56 171.79 847.70 173.22 849.85 174.64 C 850.12 174.62 850.68 174.57 850.96 174.55 C 851.97 175.70 853.57 175.66 854.95 176.08 C 858.80 177.51 862.95 177.17 866.98 177.23 C 870.64 177.18 874.48 177.47 877.91 175.88 C 878.59 175.80 879.96 175.64 880.65 175.56 L 880.55 174.81 C 881.71 174.59 882.95 174.39 884.09 173.96 C 888.29 171.20 892.26 167.59 893.93 162.71 L 894.71 162.55 C 894.71 162.17 894.69 161.41 894.68 161.03 C 895.94 158.54 896.33 155.74 897.12 153.10 C 897.45 124.90 897.11 96.70 897.18 68.50 C 904.21 68.53 911.24 68.47 918.28 68.58 C 918.74 81.49 917.90 94.43 918.23 107.35 C 917.48 122.74 918.13 138.16 917.75 153.56 C 917.60 157.38 916.62 161.09 916.21 164.88 L 915.61 164.30 C 915.56 165.17 915.45 166.91 915.39 167.78 L 914.34 167.50 C 914.39 167.89 914.50 168.66 914.56 169.05 C 913.63 170.75 912.67 172.42 911.61 174.03 C 911.60 174.37 911.60 175.06 911.60 175.40 L 910.81 175.51 C 909.90 176.80 909.05 178.13 908.13 179.42 L 907.32 179.50 L 907.58 180.68 L 906.73 180.39 C 906.40 180.74 905.73 181.44 905.39 181.80 L 905.64 182.65 L 904.83 182.42 C 904.48 182.75 903.76 183.42 903.40 183.75 L 903.47 184.17 C 902.25 185.02 901.00 185.84 899.89 186.82 C 898.57 187.69 897.23 188.53 895.99 189.49 C 895.64 189.47 894.96 189.42 894.61 189.40 L 894.41 190.70 C 893.95 190.61 893.04 190.42 892.58 190.33 L 892.57 191.26 C 889.43 192.26 886.31 193.30 883.18 194.32 C 881.89 194.45 880.61 194.57 879.34 194.68 L 879.71 195.35 C 870.56 195.64 861.41 195.67 852.26 195.35 L 852.69 194.68 C 851.39 194.57 850.10 194.45 848.82 194.32 C 847.54 193.86 846.27 193.44 845.00 193.02 C 843.16 192.49 841.38 191.85 839.58 191.27 L 839.37 190.26 C 838.90 190.37 837.97 190.59 837.50 190.70 L 837.32 189.44 C 836.97 189.44 836.27 189.45 835.92 189.46 C 834.26 188.24 832.52 187.17 830.75 186.14 L 830.57 185.31 L 829.78 185.58 C 829.52 185.23 828.99 184.53 828.72 184.17 C 827.55 183.06 826.38 181.95 825.22 180.84 C 824.98 180.54 824.50 179.94 824.25 179.64 C 823.05 178.06 821.85 176.48 820.54 174.99 C 820.55 174.65 820.55 173.97 820.55 173.63 L 819.28 173.46 C 819.38 173.00 819.57 172.09 819.67 171.63 L 818.31 171.44 C 818.33 171.09 818.37 170.39 818.39 170.04 C 817.24 167.88 816.52 165.53 815.74 163.21 C 815.62 161.93 815.50 160.65 815.40 159.37 L 814.64 159.69 C 814.23 129.31 814.32 98.93 814.49 68.55 Z" />
<path fill="#fdfdfe" opacity="1.00" d=" M 938.86 105.21 C 946.55 105.10 954.24 105.14 961.94 105.17 C 974.04 105.32 986.58 104.03 998.12 108.54 C 1005.37 111.98 1012.17 116.83 1016.33 123.85 C 1025.37 138.42 1025.68 157.77 1017.97 172.97 C 1014.69 179.47 1009.07 184.16 1003.79 188.97 C 1003.11 189.31 1002.44 189.64 1001.78 189.96 L 1001.55 190.62 L 1000.81 190.51 C 999.86 191.04 998.91 191.55 997.97 192.07 C 995.64 192.70 993.31 193.32 991.06 194.16 C 989.86 194.22 988.67 194.28 987.50 194.34 C 983.02 193.90 978.52 194.03 974.04 194.21 C 969.33 194.42 964.59 193.70 959.91 194.45 C 958.05 196.14 958.79 198.77 958.64 200.98 C 958.57 211.32 958.85 221.67 958.55 232.00 L 939.38 232.00 C 938.98 230.70 938.75 229.37 938.71 228.02 C 938.90 187.09 938.66 146.14 938.86 105.21 M 980.36 122.80 C 973.54 122.56 966.72 122.79 959.91 122.74 C 959.60 123.02 958.98 123.57 958.66 123.84 C 958.52 141.56 958.95 159.29 958.52 177.01 C 958.80 177.33 959.36 177.96 959.64 178.28 C 964.74 178.97 969.84 177.54 974.96 177.72 C 981.25 177.86 987.94 177.78 993.45 174.30 C 994.74 173.75 995.18 172.39 995.68 171.19 C 996.52 170.70 997.23 170.05 997.81 169.24 C 1002.83 164.66 1003.24 157.26 1004.25 150.98 C 1003.89 145.78 1003.39 140.43 1001.37 135.58 C 997.84 127.61 989.02 122.30 980.36 122.80 Z" />
</g>
<g id="#adc8fbff">
<path fill="#adc8fb" opacity="1.00" d=" M 538.83 69.85 L 539.49 68.54 C 539.98 110.43 539.54 152.34 539.69 194.23 C 539.32 194.54 538.59 195.15 538.22 195.45 C 531.71 195.40 525.19 195.30 518.68 195.35 C 518.09 190.93 518.35 186.47 518.32 182.03 C 518.30 158.19 518.30 134.35 518.37 110.52 L 517.63 110.55 C 517.58 108.31 518.10 105.92 517.12 103.81 L 517.12 103.81 C 517.58 103.62 518.51 103.26 518.97 103.08 C 519.13 133.38 519.00 163.68 519.03 193.98 C 525.53 193.88 532.04 194.03 538.54 193.93 C 538.75 168.29 538.45 142.64 538.67 116.99 C 538.85 101.28 538.18 85.56 538.83 69.85 Z" />
<path fill="#adc8fb" opacity="1.00" d=" M 43.96 77.99 C 47.74 74.84 53.52 74.45 57.47 77.47 C 60.10 79.95 62.64 82.53 64.87 85.38 L 65.55 85.44 L 65.54 86.51 L 66.24 86.39 C 66.52 86.78 67.09 87.54 67.38 87.92 L 67.51 88.31 C 72.12 93.49 77.45 98.02 81.81 103.44 L 82.13 103.67 C 85.36 107.79 89.17 111.41 92.79 115.19 C 93.05 115.44 93.58 115.94 93.84 116.19 C 95.55 118.08 97.16 120.07 98.80 122.03 C 103.32 127.56 109.06 131.99 113.23 137.82 C 115.63 140.54 118.07 143.28 121.01 145.45 C 124.62 139.71 130.04 135.53 134.31 130.34 C 134.60 130.04 135.17 129.45 135.45 129.15 L 135.49 128.45 L 136.14 128.44 C 139.23 124.09 143.55 120.84 146.83 116.65 C 146.91 116.57 147.06 116.42 147.14 116.34 C 148.59 114.42 150.17 112.59 151.85 110.86 C 153.35 109.36 154.83 107.84 156.27 106.29 C 156.52 106.02 157.03 105.49 157.28 105.23 C 158.62 103.57 159.91 101.87 161.28 100.23 C 161.52 99.99 161.99 99.49 162.23 99.24 C 163.88 97.55 165.54 95.87 167.21 94.20 C 170.08 91.06 173.12 88.07 175.74 84.71 C 179.60 81.06 182.76 74.71 189.00 75.61 C 193.37 75.05 196.14 78.69 198.39 81.82 C 198.53 110.42 198.21 139.03 198.60 167.63 L 199.39 167.34 C 199.48 170.01 199.61 172.68 199.73 175.35 L 200.46 175.33 C 200.94 178.60 202.00 181.75 203.10 184.86 C 203.66 186.29 204.27 187.70 204.84 189.13 C 206.23 192.14 207.58 195.20 209.49 197.93 L 209.38 199.18 C 209.70 199.21 210.36 199.29 210.69 199.33 L 210.65 200.17 C 212.01 202.18 213.38 204.19 214.78 206.18 C 215.69 207.55 216.54 208.96 217.35 210.39 C 204.72 210.63 192.10 210.73 179.48 210.46 C 179.59 183.32 179.78 156.16 179.50 129.01 C 179.29 123.35 179.98 117.57 178.78 112.00 L 178.77 111.17 C 178.27 111.27 177.27 111.48 176.78 111.58 C 175.35 113.21 173.85 114.78 172.31 116.30 C 166.73 122.47 161.31 128.76 155.51 134.73 L 155.43 135.22 C 152.36 138.84 148.80 142.01 145.80 145.69 C 145.47 145.97 144.80 146.53 144.47 146.81 L 144.54 147.26 C 141.44 150.58 138.25 153.83 135.14 157.14 C 134.92 157.49 134.48 158.18 134.26 158.53 L 133.84 158.57 C 130.89 162.09 127.88 165.59 124.35 168.54 C 121.68 168.63 119.01 168.49 116.34 168.34 C 111.69 163.79 107.24 159.05 102.90 154.21 C 99.73 150.67 96.40 147.28 93.22 143.76 C 93.00 143.49 92.57 142.97 92.35 142.71 C 87.38 137.00 81.70 131.95 76.86 126.12 C 75.20 124.36 73.63 122.52 72.07 120.68 L 71.34 120.60 L 71.40 119.89 C 68.48 116.88 65.56 113.85 62.95 110.56 C 62.11 110.44 61.27 110.32 60.43 110.20 C 60.36 137.59 60.37 164.98 60.40 192.37 C 54.68 192.37 48.95 191.37 43.24 192.18 C 35.66 193.18 28.00 192.50 20.39 192.84 C 20.39 192.55 20.39 191.98 20.39 191.69 C 27.41 191.70 34.43 191.88 41.45 191.57 C 41.18 159.72 41.55 127.86 41.37 96.00 C 41.55 89.96 40.14 83.23 43.96 77.99 Z" />
<path fill="#adc8fb" opacity="1.00" d=" M 566.72 104.55 C 578.45 103.98 590.23 104.49 601.99 104.31 C 605.58 104.12 608.97 105.57 612.55 105.63 L 612.53 106.30 C 615.94 106.91 619.36 108.00 622.06 110.27 C 622.31 110.34 622.80 110.46 623.05 110.53 C 625.27 112.67 627.40 114.92 629.37 117.30 C 630.69 119.45 631.83 121.71 632.73 124.07 C 633.55 125.76 633.47 127.66 633.61 129.49 C 633.81 129.50 634.19 129.53 634.39 129.55 C 634.90 149.04 634.46 168.55 634.62 188.05 C 634.66 190.43 634.60 192.82 634.33 195.19 C 628.37 195.59 622.40 195.41 616.44 195.39 L 616.51 194.58 C 613.85 194.61 611.19 194.63 608.54 194.64 L 608.57 195.40 C 598.65 195.13 588.72 195.46 578.80 195.17 C 579.09 194.94 579.66 194.46 579.95 194.22 C 597.77 193.57 615.63 194.30 633.46 193.85 C 634.57 187.63 634.70 181.29 633.83 175.03 C 632.79 167.01 635.08 159.01 634.14 150.99 C 633.42 145.40 634.99 139.76 633.76 134.22 C 632.83 129.45 632.74 124.31 630.03 120.10 C 625.53 111.79 616.38 106.44 607.03 105.90 C 599.36 105.09 591.65 105.60 583.96 105.36 C 578.21 105.09 572.34 106.15 566.72 104.55 Z" />
<path fill="#adc8fb" opacity="1.00" d=" M 771.58 105.40 C 779.65 105.43 787.67 104.38 795.74 104.58 C 796.58 106.52 795.10 107.40 793.81 108.30 C 793.99 107.63 794.33 106.30 794.50 105.64 C 786.86 105.20 779.21 105.98 771.58 105.40 Z" />
<path fill="#adc8fb" opacity="1.00" d=" M 294.60 110.54 C 301.15 110.43 307.71 110.42 314.26 110.52 C 314.28 113.72 314.28 116.93 314.13 120.13 C 313.91 124.39 314.51 128.67 313.85 132.92 C 313.63 143.94 313.98 154.97 313.66 165.99 C 313.59 169.68 312.96 173.33 312.01 176.89 C 311.06 179.28 310.94 182.26 308.86 184.04 C 310.04 177.99 312.94 172.27 312.77 165.99 C 312.87 147.62 312.78 129.25 312.81 110.88 C 307.22 110.51 301.61 110.52 296.01 110.62 C 296.06 125.40 295.95 140.19 296.02 154.98 C 296.03 164.05 296.32 174.58 289.44 181.51 C 290.64 179.01 291.83 176.51 293.06 174.03 C 293.36 172.39 293.65 170.73 294.36 169.20 C 294.90 149.66 294.44 130.09 294.60 110.54 Z" />
<path fill="#adc8fb" opacity="1.00" d=" M 785.38 175.88 C 788.56 177.96 790.21 181.50 792.86 184.11 C 795.01 186.33 796.97 188.72 798.75 191.25 C 799.45 191.96 800.16 192.67 800.89 193.37 C 800.74 193.88 800.45 194.88 800.31 195.38 C 792.67 195.47 785.03 195.39 777.40 195.41 L 777.40 194.90 C 776.76 194.65 775.49 194.14 774.85 193.88 C 783.24 194.02 791.63 193.96 800.02 193.85 C 795.13 187.87 789.65 182.33 785.38 175.88 Z" />
</g>
<g id="#8d99a6a7">
<path fill="#8d99a6" opacity="0.65" d=" M 938.89 104.06 C 951.92 103.96 964.96 104.09 978.00 104.02 C 987.69 103.83 997.54 106.28 1005.74 111.52 C 1015.88 118.05 1022.09 129.48 1023.91 141.22 L 1024.00 138.66 L 1024.00 158.13 C 1022.81 165.53 1019.92 172.55 1015.67 178.72 C 1012.36 182.79 1008.75 186.89 1003.79 188.97 C 1009.07 184.16 1014.69 179.47 1017.97 172.97 C 1025.68 157.77 1025.37 138.42 1016.33 123.85 C 1012.17 116.83 1005.37 111.98 998.12 108.54 C 986.58 104.03 974.04 105.32 961.94 105.17 C 954.24 105.14 946.55 105.10 938.86 105.21 L 938.89 104.06 Z" />
</g>
<g id="#fcfdfeff">
<path fill="#fcfdfe" opacity="1.00" d=" M 566.72 104.55 C 572.34 106.15 578.21 105.09 583.96 105.36 C 591.65 105.60 599.36 105.09 607.03 105.90 C 616.38 106.44 625.53 111.79 630.03 120.10 C 632.74 124.31 632.83 129.45 633.76 134.22 C 634.99 139.76 633.42 145.40 634.14 150.99 C 635.08 159.01 632.79 167.01 633.83 175.03 C 634.70 181.29 634.57 187.63 633.46 193.85 C 615.63 194.30 597.77 193.57 579.95 194.22 C 578.19 194.33 576.43 194.34 574.68 194.27 C 572.31 193.14 569.78 192.47 567.39 191.42 L 567.43 190.41 C 566.98 190.47 566.09 190.61 565.64 190.67 L 565.63 189.36 L 564.77 189.56 C 563.16 188.04 561.61 186.47 560.19 184.78 C 558.12 182.27 557.00 179.22 555.78 176.26 C 555.06 170.84 555.08 165.35 555.86 159.94 C 556.67 158.36 557.23 156.68 557.85 155.02 C 558.27 154.50 559.11 153.46 559.53 152.94 C 559.47 152.60 559.36 151.90 559.30 151.55 L 560.09 151.49 C 561.26 150.07 562.50 148.70 563.72 147.32 L 564.60 147.64 L 564.64 146.77 C 565.72 146.15 566.77 145.47 567.90 144.92 C 573.09 142.99 578.46 141.34 584.05 141.29 C 594.28 141.09 604.51 141.57 614.74 141.49 C 615.04 137.17 615.70 132.49 613.42 128.55 C 610.74 123.40 604.36 121.94 599.02 121.86 C 588.19 121.69 577.35 121.76 566.51 121.84 C 566.68 116.08 566.71 110.31 566.72 104.55 M 574.06 166.90 C 573.32 171.19 576.09 174.95 579.71 176.91 L 580.76 177.14 C 581.77 177.69 582.75 178.54 583.99 178.46 C 594.26 178.71 604.53 178.64 614.80 178.50 C 615.19 171.24 614.92 163.96 615.09 156.69 C 613.11 156.08 611.06 155.77 608.99 155.87 C 601.63 156.04 594.27 155.78 586.91 155.92 C 580.83 156.13 574.52 160.47 574.06 166.90 Z" />
<path fill="#fcfdfe" opacity="1.00" d=" M 670.47 105.62 C 672.52 105.55 674.57 105.44 676.63 105.37 L 676.26 104.55 C 684.90 104.32 693.55 104.32 702.19 104.55 C 702.72 105.24 703.79 106.60 704.32 107.29 L 702.64 107.40 C 702.73 110.85 702.69 114.31 702.61 117.76 L 703.38 117.25 C 703.33 119.01 703.31 120.78 703.32 122.54 C 695.93 123.06 688.49 122.39 681.11 122.89 C 678.39 123.39 676.02 124.82 673.97 126.60 C 672.98 128.98 671.33 131.23 671.31 133.89 C 671.25 153.96 671.53 174.04 671.29 194.12 C 664.88 194.95 658.42 193.93 652.00 194.66 C 651.96 173.41 651.92 152.16 652.03 130.91 C 651.92 125.75 654.55 121.15 656.53 116.55 C 656.59 116.41 656.72 116.13 656.78 115.99 C 657.55 115.06 658.33 114.12 659.13 113.19 C 659.45 112.92 660.10 112.40 660.43 112.13 L 660.55 111.79 C 661.76 110.94 662.93 110.03 664.10 109.11 C 666.15 108.07 668.25 107.09 670.47 106.43 L 670.47 105.62 Z" />
</g>
<g id="#47536466">
<path fill="#475364" opacity="0.40" d=" M 918.23 107.35 C 919.31 111.48 918.82 115.76 918.82 119.97 C 918.53 132.65 919.32 145.37 918.19 158.03 C 918.04 160.43 917.05 162.66 916.21 164.88 C 916.62 161.09 917.60 157.38 917.75 153.56 C 918.13 138.16 917.48 122.74 918.23 107.35 Z" />
</g>
<g id="#667a9597">
<path fill="#667a95" opacity="0.59" d=" M 653.39 121.27 C 654.00 119.45 655.05 117.80 656.53 116.55 C 654.55 121.15 651.92 125.75 652.03 130.91 C 651.92 152.16 651.96 173.41 652.00 194.66 C 658.42 193.93 664.88 194.95 671.29 194.12 C 671.53 174.04 671.25 153.96 671.31 133.89 C 671.33 131.23 672.98 128.98 673.97 126.60 C 676.02 124.82 678.39 123.39 681.11 122.89 C 675.81 125.09 671.64 130.04 671.72 135.98 C 671.70 155.00 671.63 174.02 671.72 193.04 C 671.72 194.14 671.31 195.56 669.97 195.47 C 663.96 196.11 657.90 195.09 651.89 195.82 C 651.26 193.95 650.61 192.05 650.70 190.06 C 650.64 174.37 650.65 158.68 650.70 142.98 C 650.59 135.69 650.86 128.19 653.39 121.27 Z" />
</g>
<g id="#7e92adb0">
<path fill="#7e92ad" opacity="0.69" d=" M 566.51 121.84 C 577.35 121.76 588.19 121.69 599.02 121.86 C 604.36 121.94 610.74 123.40 613.42 128.55 C 615.70 132.49 615.04 137.17 614.74 141.49 C 604.51 141.57 594.28 141.09 584.05 141.29 C 578.46 141.34 573.09 142.99 567.90 144.92 C 572.54 140.77 579.17 140.97 584.97 139.98 C 594.85 139.77 604.74 140.46 614.63 140.46 C 614.84 135.53 614.27 130.10 610.59 126.43 C 608.77 124.21 605.83 123.48 603.13 123.08 C 591.40 122.81 579.65 123.21 567.92 122.90 C 567.57 122.63 566.87 122.10 566.51 121.84 Z" />
</g>
<g id="#63778e90">
<path fill="#63778e" opacity="0.56" d=" M 980.36 122.80 C 989.02 122.30 997.84 127.61 1001.37 135.58 C 1003.39 140.43 1003.89 145.78 1004.25 150.98 C 1003.24 157.26 1002.83 164.66 997.81 169.24 C 1000.68 163.55 1003.65 157.53 1003.00 150.95 C 1003.73 142.26 1000.91 132.59 993.35 127.56 C 989.66 124.49 984.81 123.99 980.36 122.80 Z" />
</g>
<g id="#64728688">
<path fill="#647286" opacity="0.53" d=" M 574.06 166.90 C 574.52 160.47 580.83 156.13 586.91 155.92 C 594.27 155.78 601.63 156.04 608.99 155.87 C 611.06 155.77 613.11 156.08 615.09 156.69 C 614.92 163.96 615.19 171.24 614.80 178.50 C 604.53 178.64 594.26 178.71 583.99 178.46 C 582.75 178.54 581.77 177.69 580.76 177.14 C 586.04 178.54 591.53 178.01 596.93 177.99 C 602.75 177.89 608.61 178.43 614.41 177.56 C 614.07 170.73 614.48 163.88 613.68 157.08 C 606.80 156.27 599.87 157.11 592.99 156.43 C 587.83 155.93 582.32 156.93 578.25 160.30 C 575.44 162.59 574.99 166.58 575.38 169.95 C 575.65 172.84 578.03 174.76 579.71 176.91 C 576.09 174.95 573.32 171.19 574.06 166.90 Z" />
</g>
<g id="#829ab7b9">
<path fill="#829ab7" opacity="0.73" d=" M 985.03 176.73 C 989.12 176.17 992.42 173.51 995.68 171.19 C 995.18 172.39 994.74 173.75 993.45 174.30 C 987.94 177.78 981.25 177.86 974.96 177.72 C 969.84 177.54 964.74 178.97 959.64 178.28 C 959.36 177.96 958.80 177.33 958.52 177.01 C 963.34 177.59 968.17 176.75 973.01 176.86 C 977.01 176.82 981.03 177.10 985.03 176.73 Z" />
</g>
<g id="#86b0dfe3">
<path fill="#86b0df" opacity="0.89" d=" M 959.91 194.45 C 964.59 193.70 969.33 194.42 974.04 194.21 C 978.52 194.03 983.02 193.90 987.50 194.34 C 982.18 196.14 976.52 195.33 971.03 195.54 C 967.27 195.71 963.56 195.20 959.91 194.45 Z" />
</g>
</svg>
