<svg xmlns="http://www.w3.org/2000/svg" viewBox="0 0 24 24" role="img" aria-label="GitHub">
  <path fill="#181717" d="M12 .5C5.65.5.5 5.8.5 12.33c0 5.22 3.3 9.65 7.9 11.22.58.1.8-.26.8-.58v-2.23c-3.22.72-3.9-1.6-3.9-1.6-.53-1.38-1.3-1.74-1.3-1.74-1.06-.75.08-.73.08-.73 1.17.09 1.8 1.24 1.8 1.24 1.05 1.83 2.75 1.3 3.42 1 .1-.78.4-1.31.74-1.61-2.57-.3-5.28-1.31-5.28-5.88 0-1.3.46-2.37 1.2-3.2-.12-.3-.52-1.5.12-3.13 0 0 .98-.32 3.2 1.22a10.9 10.9 0 0 1 5.82 0c2.22-1.54 3.2-1.22 3.2-1.22.64 1.63.24 2.83.12 3.13.75.83 1.2 1.9 1.2 3.2 0 4.58-2.72 5.58-5.3 5.88.42.37.79 1.08.79 2.19v3.24c0 .32.2.69.8.58 4.6-1.57 7.9-6 7.9-11.22C23.5 5.8 18.35.5 12 .5Z"/>
</svg>
