<svg xmlns="http://www.w3.org/2000/svg" viewBox="0 0 24 24" role="img" aria-label="Google">
  <path fill="#4285F4" d="M23.49 12.27c0-.79-.07-1.54-.2-2.27H12v4.3h6.45a5.52 5.52 0 0 1-2.4 3.63v3h3.88c2.28-2.1 3.56-5.18 3.56-8.66Z"/>
  <path fill="#34A853" d="M12 24c3.24 0 5.96-1.07 7.95-2.9l-3.88-3c-1.08.72-2.46 1.15-4.07 1.15-3.13 0-5.77-2.12-6.72-4.97H1.27v3.1A12 12 0 0 0 12 24Z"/>
  <path fill="#FBBC05" d="M5.28 14.28A7.2 7.2 0 0 1 4.9 12c0-.79.14-1.55.38-2.28V6.62H1.27A12 12 0 0 0 0 12c0 1.93.46 3.75 1.27 5.38l4.01-3.1Z"/>
  <path fill="#EA4335" d="M12 4.75c1.76 0 3.34.61 4.58 1.8l3.44-3.45C17.95 1.15 15.24 0 12 0A12 12 0 0 0 1.27 6.62l4.01 3.1C6.23 6.87 8.87 4.75 12 4.75Z"/>
</svg>
